<svg width="239" height="58" viewBox="0 0 239 58" fill="none" xmlns="http://www.w3.org/2000/svg">
<path d="M232.977 14.2431V52.0972L203.846 14.2431H187.377H182.965H170.192V43.4748H187.377V19.9746L216.508 57.8489H232.977H237.399H238.719V14.2431H232.977Z" fill="white"/>
<path d="M128.49 14.2431H95.9041H75.0128H52.2983V19.9746H79.4348L97.5158 43.4748H118.397L100.316 19.9746L98.1 17.0938H128.49V19.9746H122.759V43.4748H128.49H165.841V32.2334H128.49V28.859H165.841V23.1174H128.621V19.9746H165.841V14.2431H129.457H128.49Z" fill="white"/>
<path d="M17.8089 17.4866V14.6964H8.09863L10.8888 17.4866H17.8089Z" fill="white"/>
<path d="M21.0322 58H23.8325V33.2407L21.0624 36.0108L21.0322 58Z" fill="white"/>
<path d="M28.0933 53.7391L30.8835 50.9489V29.8562H28.0933V53.7391Z" fill="white"/>
<path d="M35.1543 46.6881L37.9445 43.8878V35.0942L35.1543 32.304V46.6881Z" fill="white"/>
<path d="M37.9445 31.1052L33.8851 23.0972H24.4971L13.981 33.6134V50.9388L16.7712 53.729V34.7718L25.6555 25.8874H32.7267L37.9445 31.1052Z" fill="white"/>
<path d="M13.8607 23.0972L6.92041 30.0476V43.918L9.73076 46.6881V31.1657L17.8093 23.0972H13.8607Z" fill="white"/>
<path d="M2.64918 39.6169V34.3084L0 36.9677L2.64918 39.6169Z" fill="white"/>
<path d="M7.74634 8.60229L20.7807 11.8156L26.9353 18.1514L25.5251 19.5717L29.4838 19.5314L30.8839 18.1514L24.9409 12.0271L29.6751 7.29281L22.3823 0H2.84082L8.49174 5.65092H4.79497L7.74634 8.60229Z" fill="white"/>
</svg>
