<svg width="375" height="160" viewBox="0 0 375 160" fill="none" xmlns="http://www.w3.org/2000/svg">
<g clip-path="url(#clip0_1_13)">
<path d="M37.4219 70.0938C35.8047 73.3984 35 77.2617 35 81.6875C35 82.1333 35.0083 82.5734 35.0248 83.0079H41.5802C41.558 82.5727 41.5469 82.1326 41.5469 81.6875C41.5469 78.8438 42 76.1953 42.9062 73.7344C43.8125 71.2773 45.2031 69.293 47.0781 67.7812C48.9609 66.2617 51.3672 65.5 54.2969 65.5C57.2109 65.5 59.6133 66.2617 61.5 67.7812C63.3828 69.293 64.7734 71.2773 65.6719 73.7344C66.5781 76.1953 67.0312 78.8438 67.0312 81.6875C67.0312 82.1314 67.0202 82.5704 66.9981 83.0045H73.5533C73.5699 82.5711 73.5781 82.1322 73.5781 81.6875C73.5781 77.2617 72.7695 73.3984 71.1562 70.0938C69.5391 66.7812 67.2852 64.2148 64.3906 62.3906C61.5039 60.5586 58.1406 59.6406 54.2969 59.6406C50.4531 59.6406 47.082 60.5586 44.1875 62.3906C41.3008 64.2148 39.0469 66.7812 37.4219 70.0938Z" fill="white"/>
<path d="M90.9769 46H84.4457V83.1395H92.5083C92.4791 82.5951 92.0394 82.6395 91.5394 79.6395C91.0394 76.6395 91.9027 72.8438 93.9769 69.9062C96.0472 66.9688 99.0785 65.5 103.071 65.5C105.84 65.5 108.141 66.2109 109.977 67.625C111.809 69.043 113.59 71.2254 114.508 73.6395C115.422 76.0457 115.32 77.7686 115.008 79.6395C114.696 81.5104 114.041 82.5924 114.008 83.1395H121.992C122.013 82.6273 122.024 82.1069 122.024 81.5781C122.024 77.1094 121.25 73.2344 119.711 69.9531C118.18 66.6641 116.043 64.1211 113.305 62.3281C110.575 60.5391 107.418 59.6406 103.836 59.6406C101.063 59.6406 98.8715 60.1016 97.2582 61.0156C95.641 61.9219 94.4027 62.9531 93.5394 64.1094C92.684 65.2656 92.016 66.2148 91.5394 66.9531H90.9769V46Z" fill="white"/>
<path d="M156.276 71.375L162.151 69.7188C161.127 66.6875 159.409 64.25 156.995 62.4062C154.588 60.5625 151.28 59.6406 147.073 59.6406C144.08 59.6406 141.405 60.168 139.041 61.2188C136.686 62.2734 134.83 63.7188 133.479 65.5625C132.123 67.4062 131.448 69.5312 131.448 71.9375C131.448 74.875 132.354 77.3203 134.166 79.2656C135.705 80.913 137.985 82.1949 141.008 83.1112H159.543C157.677 81.4516 155.035 80.201 151.62 79.3594L145.291 77.8125C142.78 77.1875 140.932 76.4062 139.745 75.4688C138.565 74.5234 137.979 73.2344 137.979 71.6094C137.979 69.7773 138.842 68.2656 140.573 67.0781C142.299 65.8828 144.467 65.2812 147.073 65.2812C149.936 65.2812 152.041 65.9336 153.385 67.2344C154.737 68.5273 155.702 69.9062 156.276 71.375Z" fill="white"/>
<path d="M173.176 70.2344C171.582 73.5469 170.786 77.3672 170.786 81.6875C170.786 82.1639 170.795 82.6343 170.815 83.0989H177.376C177.347 82.568 177.332 82.0246 177.332 81.4688C177.332 76.6484 178.496 72.7812 180.832 69.875C183.176 66.9609 186.258 65.5 190.082 65.5C192.957 65.5 195.246 66.2578 196.957 67.7656C198.664 69.2773 199.77 71 200.27 72.9375H206.817C206.442 70.2734 205.489 67.9453 203.957 65.9531C202.426 63.9531 200.457 62.4023 198.051 61.2969C195.653 60.1953 192.961 59.6406 189.973 59.6406C186.129 59.6406 182.77 60.5781 179.895 62.4531C177.02 64.3281 174.778 66.9219 173.176 70.2344Z" fill="white"/>
<path d="M243.948 74.6453C243.948 77.3133 243.37 79.5047 242.213 81.2234C241.732 81.9386 241.205 82.5774 240.632 83.1395H250.479V60.5384H243.948V74.6453Z" fill="white"/>
<path d="M217.12 60.5384V76.5359C217.12 79.0316 217.392 81.2326 217.937 83.1395L225.857 83.0429C224.395 81.2497 223.667 78.9287 223.667 76.0828V60.5384H217.12Z" fill="white"/>
<path d="M266.543 60.1875H260.23V83.1395H266.777V75.8125C266.777 72.9492 267.793 70.5742 269.824 68.6875C271.855 66.793 274.422 65.8438 277.527 65.8438C278.34 65.8438 279.051 65.9141 279.668 66.0469C280.293 66.1836 280.832 66.3711 281.293 66.6094L283.512 61.0781C282.844 60.6016 282.066 60.2188 281.184 59.9375C280.297 59.6562 279.262 59.5156 278.074 59.5156C275.512 59.5156 273.207 60.1719 271.168 61.4844C269.137 62.7969 267.746 64.5078 266.996 66.6094H266.543V60.1875Z" fill="white"/>
<path d="M290.581 70.0938C288.963 73.3984 288.159 77.2617 288.159 81.6875C288.159 82.1784 288.169 82.6624 288.189 83.1395H294.746C294.719 82.6615 294.706 82.1775 294.706 81.6875C294.706 78.8438 295.159 76.1953 296.065 73.7344C296.971 71.2773 298.362 69.293 300.237 67.7812C302.12 66.2617 304.526 65.5 307.456 65.5C310.37 65.5 312.772 66.2617 314.659 67.7812C316.542 69.293 317.932 71.2773 318.831 73.7344C319.737 76.1953 320.19 78.8438 320.19 81.6875C320.19 82.1775 320.176 82.6615 320.15 83.1395H326.707C326.727 82.6624 326.737 82.1784 326.737 81.6875C326.737 77.2617 325.928 73.3984 324.315 70.0938C322.698 66.7812 320.444 64.2148 317.549 62.3906C314.663 60.5586 311.299 59.6406 307.456 59.6406C303.612 59.6406 300.241 60.5586 297.346 62.3906C294.459 64.2148 292.206 66.7812 290.581 70.0938Z" fill="white"/>
<path d="M335.618 97.6981C332.926 97.6981 330.743 99.8817 330.743 102.573C330.743 105.264 332.926 107.448 335.618 107.448C338.309 107.448 340.493 105.264 340.493 102.573C340.493 99.8817 338.309 97.6981 335.618 97.6981Z" fill="white"/>
</g>
<defs>
<clipPath id="clip0_1_13">
<rect width="375" height="160" fill="white"/>
</clipPath>
</defs>
</svg>
