<?xml version="1.0" encoding="UTF-8" standalone="no"?><svg xmlns="http://www.w3.org/2000/svg" xmlns:xlink="http://www.w3.org/1999/xlink" contentStyleType="text/css" height="208px" preserveAspectRatio="none" style="width:632px;height:208px;background:#FFFFFF;" version="1.1" viewBox="0 0 632 208" width="632px" zoomAndPan="magnify"><defs/><g><line style="stroke:#181818;stroke-width:0.5;stroke-dasharray:5.0,5.0;" x1="27" x2="27" y1="36.2969" y2="172.8281"/><line style="stroke:#181818;stroke-width:0.5;stroke-dasharray:5.0,5.0;" x1="388" x2="388" y1="36.2969" y2="172.8281"/><line style="stroke:#181818;stroke-width:0.5;stroke-dasharray:5.0,5.0;" x1="564" x2="564" y1="36.2969" y2="172.8281"/><rect fill="#E2E2F0" height="30.2969" rx="2.5" ry="2.5" style="stroke:#181818;stroke-width:0.5;" width="45" x="5" y="5"/><text fill="#000000" font-family="sans-serif" font-size="14" lengthAdjust="spacing" textLength="31" x="12" y="24.9951">User</text><rect fill="#E2E2F0" height="30.2969" rx="2.5" ry="2.5" style="stroke:#181818;stroke-width:0.5;" width="45" x="5" y="171.8281"/><text fill="#000000" font-family="sans-serif" font-size="14" lengthAdjust="spacing" textLength="31" x="12" y="191.8232">User</text><rect fill="#E2E2F0" height="30.2969" rx="2.5" ry="2.5" style="stroke:#181818;stroke-width:0.5;" width="145" x="316" y="5"/><text fill="#000000" font-family="sans-serif" font-size="14" lengthAdjust="spacing" textLength="131" x="323" y="24.9951">BridgeL2 Contract</text><rect fill="#E2E2F0" height="30.2969" rx="2.5" ry="2.5" style="stroke:#181818;stroke-width:0.5;" width="145" x="316" y="171.8281"/><text fill="#000000" font-family="sans-serif" font-size="14" lengthAdjust="spacing" textLength="131" x="323" y="191.8232">BridgeL2 Contract</text><rect fill="#E2E2F0" height="30.2969" rx="2.5" ry="2.5" style="stroke:#181818;stroke-width:0.5;" width="123" x="503" y="5"/><text fill="#000000" font-family="sans-serif" font-size="14" lengthAdjust="spacing" textLength="109" x="510" y="24.9951">MessageBusAPI</text><rect fill="#E2E2F0" height="30.2969" rx="2.5" ry="2.5" style="stroke:#181818;stroke-width:0.5;" width="123" x="503" y="171.8281"/><text fill="#000000" font-family="sans-serif" font-size="14" lengthAdjust="spacing" textLength="109" x="510" y="191.8232">MessageBusAPI</text><polygon fill="#181818" points="376.5,63.4297,386.5,67.4297,376.5,71.4297,380.5,67.4297" style="stroke:#181818;stroke-width:1.0;"/><line style="stroke:#181818;stroke-width:1.0;" x1="27.5" x2="382.5" y1="67.4297" y2="67.4297"/><text fill="#000000" font-family="sans-serif" font-size="13" lengthAdjust="spacing" textLength="337" x="34.5" y="62.3638">TX( BridgeL2 -&gt; function receiveAssets( msgHash ) )</text><polygon fill="#181818" points="552.5,92.5625,562.5,96.5625,552.5,100.5625,556.5,96.5625" style="stroke:#181818;stroke-width:1.0;"/><line style="stroke:#181818;stroke-width:1.0;" x1="388.5" x2="558.5" y1="96.5625" y2="96.5625"/><text fill="#000000" font-family="sans-serif" font-size="13" lengthAdjust="spacing" textLength="152" x="395.5" y="91.4966">verifyMessageReceived</text><polygon fill="#181818" points="399.5,121.6953,389.5,125.6953,399.5,129.6953,395.5,125.6953" style="stroke:#181818;stroke-width:1.0;"/><line style="stroke:#181818;stroke-width:1.0;" x1="393.5" x2="563.5" y1="125.6953" y2="125.6953"/><text fill="#000000" font-family="sans-serif" font-size="13" lengthAdjust="spacing" textLength="94" x="405.5" y="120.6294">result of verify</text><polygon fill="#181818" points="38.5,150.8281,28.5,154.8281,38.5,158.8281,34.5,154.8281" style="stroke:#181818;stroke-width:1.0;"/><line style="stroke:#181818;stroke-width:1.0;stroke-dasharray:2.0,2.0;" x1="32.5" x2="387.5" y1="154.8281" y2="154.8281"/><text fill="#000000" font-family="sans-serif" font-size="13" lengthAdjust="spacing" textLength="201" x="44.5" y="149.7622">DAI.O =&gt; event Mint(user, 500)</text><!--MD5=[981aa5284a344e8bc2f1a96614bcc3af]
@startuml
User -> "BridgeL2 Contract": TX( BridgeL2 -> function receiveAssets( msgHash ) )
"BridgeL2 Contract" -> MessageBusAPI: verifyMessageReceived
MessageBusAPI -> "BridgeL2 Contract": result of verify
"BridgeL2 Contract" - -> User: DAI.O => event Mint(user, 500)
@enduml

PlantUML version 1.2022.13beta5(Unknown compile time)
(GPL source distribution)
Java Runtime: Java(TM) SE Runtime Environment
JVM: Java HotSpot(TM) 64-Bit Server VM
Default Encoding: UTF-8
Language: en
Country: US
--></g></svg>