<svg xmlns="http://www.w3.org/2000/svg" xmlns:xlink="http://www.w3.org/1999/xlink" xmlns:lucid="lucid" width="2420.99" height="1127.46"><g transform="translate(-28.754530829745136 1137.2915818317288)" lucid:page-tab-id="0_0"><path d="M536.75-202.4c28.72 0 52 17.9 52 40s-23.28 40-52 40h-156c-28.7 0-52-17.9-52-40s23.3-40 52-40z" stroke="#3a414a" fill="#fff"/><use xlink:href="#a" transform="matrix(1,0,0,1,333.75453082974514,-197.39394464999089) translate(46.483395061728395 40.611111111111114)"/><use xlink:href="#b" transform="matrix(1,0,0,1,333.75453082974514,-197.39394464999089) translate(121.9154938271605 40.611111111111114)"/><path d="M1791.48-721.05a7.6 7.6 0 0 1 9.42 0l180.58 142.57a4.74 4.74 0 0 1 0 7.43L1800.9-428.48a7.6 7.6 0 0 1-9.42 0L1610.9-571.05a4.74 4.74 0 0 1 0-7.43z" stroke="#3a414a" fill="#fff"/><use xlink:href="#c" transform="matrix(1,0,0,1,1611.191099213315,-719.7643968532586) translate(66.2796913580247 118.26736111111111)"/><use xlink:href="#d" transform="matrix(1,0,0,1,1611.191099213315,-719.7643968532586) translate(241.1377160493827 118.26736111111111)"/><use xlink:href="#e" transform="matrix(1,0,0,1,1611.191099213315,-719.7643968532586) translate(28.643888888888892 152.93402777777777)"/><use xlink:href="#f" transform="matrix(1,0,0,1,1611.191099213315,-719.7643968532586) translate(86.34141975308643 152.93402777777777)"/><use xlink:href="#g" transform="matrix(1,0,0,1,1611.191099213315,-719.7643968532586) translate(203.42166666666665 152.93402777777777)"/><use xlink:href="#h" transform="matrix(1,0,0,1,1611.191099213315,-719.7643968532586) translate(251.5698148148148 152.93402777777777)"/><use xlink:href="#i" transform="matrix(1,0,0,1,1611.191099213315,-719.7643968532586) translate(127.30746913580248 187.60069444444443)"/><path d="M2096.7-501.65h-1l-.07-58.45h1zm-112.4-72.6v-1h9v1z" stroke="#3a414a" stroke-width=".05" fill="#3a414a"/><path d="M1984.3-574.26h-.56l.05-.5-.06-.5h.56z" fill="#3a414a"/><path d="M1984.32-574.24h-.6l.04-.52-.05-.53h.62zm-.55-1l.04.48-.03.47h.5v-.94z" stroke="#3a414a" stroke-width=".05" fill="#3a414a"/><path d="M2096.2-486.88l-4.64-14.27h9.27z" fill="#3a414a"/><path d="M2096.2-485.26l-5.33-16.4h10.64zm-3.96-15.4l3.95 12.16 3.94-12.15z" stroke="#3a414a" stroke-width=".05" fill="#3a414a"/><use xlink:href="#j" transform="matrix(1,0,0,1,1993.3092823688885,-589.4310635199253) translate(0 19.555555555555557)"/><use xlink:href="#k" transform="matrix(1,0,0,1,1993.3092823688885,-589.4310635199253) translate(66.4074074074074 19.555555555555557)"/><use xlink:href="#l" transform="matrix(1,0,0,1,1993.3092823688885,-589.4310635199253) translate(111.01851851851852 19.555555555555557)"/><path d="M2162.2-484.76c24.3 0 44 17.9 44 40s-19.7 40-44 40h-132c-24.3 0-44-17.9-44-40s19.7-40 44-40z" stroke="#3a414a" fill="#c3f7c8"/><use xlink:href="#m" transform="matrix(1,0,0,1,1991.1910992133148,-479.7643968532586) translate(8.90432098765433 40.611111111111114)"/><use xlink:href="#n" transform="matrix(1,0,0,1,1991.1910992133148,-479.7643968532586) translate(98.54012345679013 40.611111111111114)"/><path d="M1796.7-361.65h-1v-9.5h1zm0-38.82h-1v-25.38h1z" stroke="#3a414a" stroke-width=".05" fill="#3a414a"/><path d="M1796.2-426.35l.5-.03v.55h-1v-.55z" fill="#3a414a"/><path d="M1796.2-426.37l.52-.04v.6h-1.05v-.6zm-.48.5h.95v-.48l-.48.03-.48-.03z" stroke="#3a414a" stroke-width=".05" fill="#3a414a"/><path d="M1796.2-346.88l-4.64-14.27h9.27z" fill="#3a414a"/><path d="M1796.2-345.26l-5.33-16.4h10.64zm-3.96-15.4l3.95 12.16 3.94-12.15z" stroke="#3a414a" stroke-width=".05" fill="#3a414a"/><use xlink:href="#o" transform="matrix(1,0,0,1,1747.404062176278,-400.4720025280826) translate(0 19.555555555555557)"/><path d="M1844.2-344.76c17.66 0 32 17.9 32 40s-14.34 40-32 40h-96c-17.68 0-32-17.9-32-40s14.32-40 32-40z" stroke="#3a414a" fill="#fff"/><use xlink:href="#p" transform="matrix(1,0,0,1,1721.191099213315,-339.76439685325863) translate(14.814814814814817 40.611111111111114)"/><path d="M536.75-892.55c28.72 0 52 17.9 52 40s-23.28 40-52 40h-156c-28.7 0-52-17.9-52-40s23.3-40 52-40z" stroke="#3a414a" fill="#fff"/><use xlink:href="#q" transform="matrix(1,0,0,1,333.75453082974514,-887.5515496571677) translate(48.81055555555555 25.29861111111111)"/><use xlink:href="#r" transform="matrix(1,0,0,1,333.75453082974514,-887.5515496571677) translate(103.37845679012345 25.29861111111111)"/><use xlink:href="#s" transform="matrix(1,0,0,1,333.75453082974514,-887.5515496571677) translate(181.9401851851852 25.29861111111111)"/><use xlink:href="#t" transform="matrix(1,0,0,1,333.75453082974514,-887.5515496571677) translate(72.88462962962964 59.96527777777777)"/><path d="M454.05-603.3a7.57 7.57 0 0 1 9.4 0l112.6 89.3a4.76 4.76 0 0 1 0 7.46l-112.6 89.3a7.57 7.57 0 0 1-9.4 0l-112.58-89.3a4.76 4.76 0 0 1 0-7.45z" stroke="#3a414a" fill="#fff"/><use xlink:href="#u" transform="matrix(1,0,0,1,341.7654048211332,-602.0134906873096) translate(75.56055555555557 78.83333333333333)"/><use xlink:href="#v" transform="matrix(1,0,0,1,341.7654048211332,-602.0134906873096) translate(36.41240740740742 110.83333333333333)"/><use xlink:href="#w" transform="matrix(1,0,0,1,341.7654048211332,-602.0134906873096) translate(117.8198148148148 110.83333333333333)"/><path d="M1910.2-904.76c41.96 0 76 26.1 76 58.33 0 32.22-34.04 58.33-76 58.33h-228c-41.98 0-76-26.1-76-58.33 0-32.22 34.02-58.33 76-58.33z" stroke="#3a414a" fill="#fff"/><use xlink:href="#x" transform="matrix(1,0,0,1,1611.191099213315,-899.7643968532587) translate(42.32598765432099 43.173611111111114)"/><use xlink:href="#y" transform="matrix(1,0,0,1,1611.191099213315,-899.7643968532587) translate(218.7087037037037 43.173611111111114)"/><use xlink:href="#z" transform="matrix(1,0,0,1,1611.191099213315,-899.7643968532587) translate(61.66549382716048 77.84027777777777)"/><use xlink:href="#A" transform="matrix(1,0,0,1,1611.191099213315,-899.7643968532587) translate(177.06055555555554 77.84027777777777)"/><use xlink:href="#B" transform="matrix(1,0,0,1,1611.191099213315,-899.7643968532587) translate(237.96796296296296 77.84027777777777)"/><path d="M1796.2-787.1v47.53" stroke="#3a414a" fill="none"/><path d="M1796.7-787.08h-1v-.52h1z" stroke="#3a414a" stroke-width=".05" fill="#3a414a"/><path d="M1796.2-724.8l-4.64-14.27h9.27z" stroke="#3a414a" fill="#3a414a"/><path d="M536.75-749.55c28.72 0 52 25.52 52 57s-23.28 57-52 57h-156c-28.7 0-52-25.52-52-57s23.3-57 52-57z" stroke="#3a414a" fill="#fff"/><use xlink:href="#C" transform="matrix(1,0,0,1,333.75453082974514,-744.5515496571677) translate(18.396975308641963 29.61111111111111)"/><use xlink:href="#D" transform="matrix(1,0,0,1,333.75453082974514,-744.5515496571677) translate(112.92783950617284 29.61111111111111)"/><use xlink:href="#E" transform="matrix(1,0,0,1,333.75453082974514,-744.5515496571677) translate(29.385802469135797 64.27777777777777)"/><use xlink:href="#F" transform="matrix(1,0,0,1,333.75453082974514,-744.5515496571677) translate(186.99074074074073 64.27777777777777)"/><use xlink:href="#G" transform="matrix(1,0,0,1,333.75453082974514,-744.5515496571677) translate(59.24265432098766 98.94444444444444)"/><path d="M458.75-634.55v12.74" stroke="#3a414a" fill="none"/><path d="M459.25-634.54h-1v-.5h1z" stroke="#3a414a" stroke-width=".05" fill="#3a414a"/><path d="M458.75-607.04l-4.63-14.27h9.27z" stroke="#3a414a" fill="#3a414a"/><path d="M644.2-906.75a7.8 7.8 0 0 1 7.55-5.8h161a4.6 4.6 0 0 1 4.46 5.8l-28.9 108.4a7.8 7.8 0 0 1-7.55 5.8h-161a4.6 4.6 0 0 1-4.45-5.8z" stroke="#3a414a" fill="#fff"/><use xlink:href="#H" transform="matrix(1,0,0,1,618.7545308297451,-907.5515496571677) translate(29.04203703703706 28.20833333333333)"/><use xlink:href="#I" transform="matrix(1,0,0,1,618.7545308297451,-907.5515496571677) translate(153.3383333333333 28.20833333333333)"/><use xlink:href="#J" transform="matrix(1,0,0,1,618.7545308297451,-907.5515496571677) translate(21.986481481481498 60.20833333333332)"/><use xlink:href="#K" transform="matrix(1,0,0,1,618.7545308297451,-907.5515496571677) translate(150.80129629629627 60.20833333333332)"/><use xlink:href="#L" transform="matrix(1,0,0,1,618.7545308297451,-907.5515496571677) translate(12.78277777777779 92.20833333333331)"/><use xlink:href="#M" transform="matrix(1,0,0,1,618.7545308297451,-907.5515496571677) translate(98.56055555555555 92.20833333333331)"/><use xlink:href="#N" transform="matrix(1,0,0,1,618.7545308297451,-907.5515496571677) translate(135.5975925925926 92.20833333333331)"/><path d="M79.2-1066.75a7.8 7.8 0 0 1 7.55-5.8h161a4.6 4.6 0 0 1 4.46 5.8l-28.9 108.4a7.8 7.8 0 0 1-7.55 5.8h-161a4.6 4.6 0 0 1-4.45-5.8z" stroke="#3a414a" fill="#ffdda6"/><use xlink:href="#O" transform="matrix(1,0,0,1,53.754530829745136,-1067.5515496571677) translate(43.33833333333334 21.21527777777778)"/><use xlink:href="#P" transform="matrix(1,0,0,1,53.754530829745136,-1067.5515496571677) translate(74.20253086419753 21.21527777777778)"/><use xlink:href="#Q" transform="matrix(1,0,0,1,53.754530829745136,-1067.5515496571677) translate(134.63462962962961 21.21527777777778)"/><use xlink:href="#R" transform="matrix(1,0,0,1,53.754530829745136,-1067.5515496571677) translate(58.67783950617283 47.88194444444444)"/><use xlink:href="#S" transform="matrix(1,0,0,1,53.754530829745136,-1067.5515496571677) translate(37.30746913580246 74.54861111111111)"/><use xlink:href="#T" transform="matrix(1,0,0,1,53.754530829745136,-1067.5515496571677) translate(35.918580246913564 101.21527777777777)"/><path d="M589.75-852.55h23.14" stroke="#3a414a" fill="none"/><path d="M589.77-852.05h-.54l.02-.5v-.5h.52z" stroke="#3a414a" stroke-width=".05" fill="#3a414a"/><path d="M627.66-852.55l-14.27 4.63v-9.27z" stroke="#3a414a" fill="#3a414a"/><path d="M151.25-951.6v93.05a6 6 0 0 0 6 6h154.62" stroke="#3a414a" fill="none"/><path d="M151.75-951.58h-1v-.5h1z" stroke="#3a414a" stroke-width=".05" fill="#3a414a"/><path d="M326.64-852.55l-14.27 4.63v-9.27z" stroke="#3a414a" fill="#3a414a"/><path d="M458.75-811.55v45.1" stroke="#3a414a" fill="none"/><path d="M459.25-811.54h-1v-.5h1z" stroke="#3a414a" stroke-width=".05" fill="#3a414a"/><path d="M458.75-751.67l-4.63-14.27h9.27z" stroke="#3a414a" fill="#3a414a"/><path d="M644.2-746.75a7.8 7.8 0 0 1 7.55-5.8h161a4.6 4.6 0 0 1 4.46 5.8l-28.9 108.4a7.8 7.8 0 0 1-7.55 5.8h-161a4.6 4.6 0 0 1-4.45-5.8z" stroke="#3a414a" fill="#fff"/><use xlink:href="#U" transform="matrix(1,0,0,1,618.7545308297451,-747.5515496571677) translate(24.671666666666678 28.20833333333333)"/><use xlink:href="#V" transform="matrix(1,0,0,1,618.7545308297451,-747.5515496571677) translate(111.85685185185184 28.20833333333333)"/><use xlink:href="#W" transform="matrix(1,0,0,1,618.7545308297451,-747.5515496571677) translate(165.11611111111108 28.20833333333333)"/><use xlink:href="#X" transform="matrix(1,0,0,1,618.7545308297451,-747.5515496571677) translate(22.838333333333345 60.20833333333332)"/><use xlink:href="#Y" transform="matrix(1,0,0,1,618.7545308297451,-747.5515496571677) translate(56.76425925925926 60.20833333333332)"/><use xlink:href="#Z" transform="matrix(1,0,0,1,618.7545308297451,-747.5515496571677) translate(28.301296296296307 92.20833333333331)"/><path d="M589.75-692.55h23.14" stroke="#3a414a" fill="none"/><path d="M589.77-692.05h-.54l.02-.5v-.5h.52z" stroke="#3a414a" stroke-width=".05" fill="#3a414a"/><path d="M627.66-692.55l-14.27 4.63v-9.27z" stroke="#3a414a" fill="#3a414a"/><path d="M149.33-515.4l.2.83.33.8.45.74.57.65.65.56.74.45.8.33.83.2.87.07h183.9v1H154.72l-1-.07-.98-.24-.95-.4-.87-.53-.77-.67-.67-.77-.54-.87-.4-.96-.23-1-.04-150.03h1zm162.54-336.65l-158 .07-.8.2-.8.33-.75.45-.65.56-.56.66-.44.73-.33.8-.2.84-.08.87.04 159.9h-1l-.05-159.94.08-1 .24-1 .4-.93.52-.87.66-.78.77-.66.87-.54.95-.4 1-.24 158.12-.07z" stroke="#3a414a" stroke-width=".05" fill="#3a414a"/><path d="M339.16-510.27l.05.5h-.55v-1h.56z" fill="#3a414a"/><path d="M339.2-510.27l.04.53h-.62v-1.05h.62zm-.53-.47v.95h.5l-.03-.47.04-.47z" stroke="#3a414a" stroke-width=".05" fill="#3a414a"/><path d="M326.64-852.55l-14.27 4.63v-9.27z" fill="#3a414a"/><path d="M328.25-852.55l-16.38 5.32v-10.65zm-15.38 3.95l12.15-3.95-12.15-3.95z" stroke="#3a414a" stroke-width=".05" fill="#3a414a"/><use xlink:href="#aa" transform="matrix(1,0,0,1,136.95206169394265,-686.6213739800841) translate(0 14.222222222222223)"/><path d="M459.25-339.28h-1v-15.05h1zm0-44.4h-1v-30.93h1z" stroke="#3a414a" stroke-width=".05" fill="#3a414a"/><path d="M458.75-415.1l.5-.04v.54h-1v-.54z" fill="#3a414a"/><path d="M458.75-415.13l.53-.04v.6h-1.05v-.6zm-.47.5h.95v-.5l-.48.05-.47-.04z" stroke="#3a414a" stroke-width=".05" fill="#3a414a"/><path d="M458.75-324.5l-4.63-14.28h9.27z" fill="#3a414a"/><path d="M458.75-322.9l-5.32-16.38h10.65zm-3.94-15.38l3.95 12.15 3.95-12.15z" stroke="#3a414a" stroke-width=".05" fill="#3a414a"/><use xlink:href="#ab" transform="matrix(1,0,0,1,437.70514811369577,-383.66776862865373) translate(0 19.555555555555557)"/><path d="M536.75-322.4c28.72 0 52 17.9 52 40s-23.28 40-52 40h-156c-28.7 0-52-17.9-52-40s23.3-40 52-40z" stroke="#3a414a" fill="#fff"/><use xlink:href="#C" transform="matrix(1,0,0,1,333.75453082974514,-317.3939446499909) translate(42.55129629629628 40.611111111111114)"/><use xlink:href="#B" transform="matrix(1,0,0,1,333.75453082974514,-317.3939446499909) translate(137.08216049382716 40.611111111111114)"/><path d="M458.75-241.4v22.12" stroke="#3a414a" fill="none"/><path d="M459.25-241.38h-1v-.5h1z" stroke="#3a414a" stroke-width=".05" fill="#3a414a"/><path d="M458.75-204.5l-4.63-14.28h9.27z" stroke="#3a414a" fill="#3a414a"/><path d="M644.2-336.6a7.8 7.8 0 0 1 7.55-5.8h161a4.6 4.6 0 0 1 4.46 5.8l-28.9 108.4a7.8 7.8 0 0 1-7.55 5.8h-161a4.6 4.6 0 0 1-4.45-5.8z" stroke="#3a414a" fill="#fff"/><g><use xlink:href="#ac" transform="matrix(1,0,0,1,618.7545308297451,-337.3939446499909) translate(61.19944444444445 43.736111111111114)"/><use xlink:href="#ad" transform="matrix(1,0,0,1,618.7545308297451,-337.3939446499909) translate(36.87228395061727 78.40277777777777)"/></g><path d="M589.75-282.4h23.14" stroke="#3a414a" fill="none"/><path d="M589.77-281.9h-.54l.02-.5v-.5h.52z" stroke="#3a414a" stroke-width=".05" fill="#3a414a"/><path d="M627.66-282.4l-14.27 4.64v-9.27z" stroke="#3a414a" fill="#3a414a"/><path d="M819.2-336.6a7.8 7.8 0 0 1 7.55-5.8h161a4.6 4.6 0 0 1 4.46 5.8l-28.9 108.4a7.8 7.8 0 0 1-7.55 5.8h-161a4.6 4.6 0 0 1-4.45-5.8z" stroke="#3a414a" fill="#fff"/><g><use xlink:href="#ae" transform="matrix(1,0,0,1,793.7545308297451,-337.3939446499909) translate(44.30746913580248 43.736111111111114)"/><use xlink:href="#af" transform="matrix(1,0,0,1,793.7545308297451,-337.3939446499909) translate(27.28277777777779 78.40277777777777)"/></g><path d="M993.75-1111.3a6 6 0 0 1 6-6h193a6 6 0 0 1 6 6v888a6 6 0 0 1-6 6h-193a6 6 0 0 1-6-6z" fill="none"/><path d="M993.75-217.3c5.53 0 10-4.47 10-10v-430c0-5.5 4.48-10 10-10-5.52 0-10-4.47-10-10v-430c0-5.5-4.47-10-10-10" stroke="#3a414a" stroke-width="5" fill="none"/><g><use xlink:href="#ag" transform="matrix(1,0,0,1,1028.7545308297451,-1112.2915818317288) translate(0 451.2222222222222)"/><use xlink:href="#ah" transform="matrix(1,0,0,1,1028.7545308297451,-1112.2915818317288) translate(126.08641975308639 451.2222222222222)"/></g><path d="M2215.74-1111.3a6 6 0 0 1 6-6h202a6 6 0 0 1 6 6v888a6 6 0 0 1-6 6h-202a6 6 0 0 1-6-6z" fill="none"/><path d="M2215.74-217.3c5.53 0 10-4.47 10-10v-430c0-5.5 4.48-10 10-10-5.52 0-10-4.47-10-10v-430c0-5.5-4.47-10-10-10" stroke="#3a414a" stroke-width="5" fill="none"/><g><use xlink:href="#ai" transform="matrix(1,0,0,1,2250.7436568383573,-1112.2915818317288) translate(0 432.55555555555554)"/><use xlink:href="#aj" transform="matrix(1,0,0,1,2250.7436568383573,-1112.2915818317288) translate(0 469.8888888888889)"/></g><path d="M1136.12-545.23a7.8 7.8 0 0 1 7.55-5.8h161a4.6 4.6 0 0 1 4.45 5.8l-28.9 108.4a7.8 7.8 0 0 1-7.55 5.8h-161a4.6 4.6 0 0 1-4.46-5.8z" stroke="#3a414a" fill="#ffdda6"/><g><use xlink:href="#ak" transform="matrix(1,0,0,1,1110.666734534617,-546.0271043796057) translate(27.597592592592616 28.20833333333333)"/><use xlink:href="#al" transform="matrix(1,0,0,1,1110.666734534617,-546.0271043796057) translate(64.63462962962964 28.20833333333333)"/><use xlink:href="#am" transform="matrix(1,0,0,1,1110.666734534617,-546.0271043796057) translate(137.15314814814815 28.20833333333333)"/><use xlink:href="#an" transform="matrix(1,0,0,1,1110.666734534617,-546.0271043796057) translate(29.46796296296298 60.20833333333332)"/><use xlink:href="#Z" transform="matrix(1,0,0,1,1110.666734534617,-546.0271043796057) translate(28.301296296296307 92.20833333333331)"/></g><path d="M1366.08-545.23a7.8 7.8 0 0 1 7.55-5.8h161a4.6 4.6 0 0 1 4.45 5.8l-28.9 108.4a7.8 7.8 0 0 1-7.55 5.8h-161a4.6 4.6 0 0 1-4.45-5.8z" stroke="#3a414a" fill="#c3f7c8"/><g><use xlink:href="#ao" transform="matrix(1,0,0,1,1340.6304878966569,-546.0271043796057) translate(46.674753086419756 43.736111111111114)"/><use xlink:href="#ap" transform="matrix(1,0,0,1,1340.6304878966569,-546.0271043796057) translate(86.79820987654321 43.736111111111114)"/><use xlink:href="#aq" transform="matrix(1,0,0,1,1340.6304878966569,-546.0271043796057) translate(47.3445061728395 78.40277777777777)"/></g><path d="M1560.3-492.95l1.28.3 1.16.5 1.07.65.97.8.82.97.64 1.07.48 1.16.3 1.22.1 1.17-.1 449.45-.3 1.3-.48 1.16-.65 1.08-.83.95-.96.82-1.06.65-1.16.48-1.22.3-1.17.1-1095.62-.08-1.3-.32-1.16-.48-1.07-.65-.96-.82-.82-.95-.66-1.07-.48-1.16-.3-1.22-.1-1.17v-83.14h4v83l.07.7.16.6.24.58.32.54.4.47.5.4.52.33.58.24.53.13 1094.98.07.7-.05.6-.15.6-.24.53-.33.47-.4.4-.48.34-.54.24-.58.13-.53.08-448.82-.05-.7-.14-.6-.23-.6-.33-.52-.4-.48-.48-.4-.54-.34-.58-.23-.54-.12-11.97-.08.03-4z" stroke="#3a414a" stroke-width=".05" fill="#3a414a"/><path d="M460.75-119.84h-4v-2.05h4z" fill="#3a414a"/><path d="M460.78-119.82h-4.05v-2.1h4.05zm-4-2.05v2h3.95v-2z" stroke="#3a414a" stroke-width=".05" fill="#3a414a"/><path d="M1545.85-486.4l-14.27-4.63 14.27-4.63z" fill="#3a414a"/><path d="M1547.85-483.64l-22.74-7.4 22.75-7.38zm-9.8-7.4l5.8 1.9v-3.77z" stroke="#3a414a" stroke-width=".05" fill="#3a414a"/><path d="M654.3-116.4a6 6 0 0 1 6-6h362.95a6 6 0 0 1 6 6v72.67a6 6 0 0 1-6 6H660.3a6 6 0 0 1-6-6z" stroke="#000" stroke-opacity="0" fill="#fff" fill-opacity="0"/><g><use xlink:href="#ar" transform="matrix(1,0,0,1,659.3016514590933,-117.39394464999086) translate(6.419753086419718 27.232638888888893)"/><use xlink:href="#as" transform="matrix(1,0,0,1,659.3016514590933,-117.39394464999086) translate(87.65432098765429 27.232638888888893)"/><use xlink:href="#at" transform="matrix(1,0,0,1,659.3016514590933,-117.39394464999086) translate(172.0864197530864 27.232638888888893)"/><use xlink:href="#au" transform="matrix(1,0,0,1,659.3016514590933,-117.39394464999086) translate(332.6543209876544 27.232638888888893)"/><use xlink:href="#av" transform="matrix(1,0,0,1,659.3016514590933,-117.39394464999086) translate(124.72839506172839 64.56597222222223)"/></g><path d="M1259.42-300.3a7.8 7.8 0 0 1 7.54-5.8h161a4.6 4.6 0 0 1 4.46 5.8l-28.9 108.4a7.8 7.8 0 0 1-7.56 5.8h-161a4.6 4.6 0 0 1-4.45-5.8z" stroke="#3a414a" fill="#fff"/><g><use xlink:href="#aw" transform="matrix(1,0,0,1,1233.9635497581887,-301.09473649971676) translate(25.85067901234569 43.736111111111114)"/><use xlink:href="#ax" transform="matrix(1,0,0,1,1233.9635497581887,-301.09473649971676) translate(146.06055555555554 43.736111111111114)"/><use xlink:href="#ay" transform="matrix(1,0,0,1,1233.9635497581887,-301.09473649971676) translate(57.736481481481476 78.40277777777777)"/></g><path d="M1331.46-307.05v-55.5a6 6 0 0 0-6-6h-112a6 6 0 0 1-6-6v-39.63" stroke="#3a414a" fill="none"/><path d="M1331.96-306.56h-1v-.5h1z" stroke="#3a414a" stroke-width=".05" fill="#3a414a"/><path d="M1207.45-428.95l4.64 14.27h-9.28z" stroke="#3a414a" fill="#3a414a"/><path d="M1331.46-307.05v-55.5a6 6 0 0 1 6-6h112.02a6 6 0 0 0 6-6v-39.64" stroke="#3a414a" fill="none"/><path d="M1331.96-306.56h-1v-.5h1z" stroke="#3a414a" stroke-width=".05" fill="#3a414a"/><path d="M1455.48-428.96l4.64 14.27h-9.27z" stroke="#3a414a" fill="#3a414a"/><path d="M1438.13-552v-288.43a6 6 0 0 1 6-6h145.18" stroke="#3a414a" fill="none"/><path d="M1438.63-551.5h-1v-.5h1z" stroke="#3a414a" stroke-width=".05" fill="#3a414a"/><path d="M1604.07-846.43l-14.26 4.63v-9.27z" stroke="#3a414a" fill="#3a414a"/><defs><path fill="#3a414a" d="M185-189c-5-48-123-54-124 2 14 75 158 14 163 119 3 78-121 87-175 55-17-10-28-26-33-46l33-7c5 56 141 63 141-1 0-78-155-14-162-118-5-82 145-84 179-34 5 7 8 16 11 25" id="az"/><path fill="#3a414a" d="M100-194c63 0 86 42 84 106H49c0 40 14 67 53 68 26 1 43-12 49-29l28 8c-11 28-37 45-77 45C44 4 14-33 15-96c1-61 26-98 85-98zm52 81c6-60-76-77-97-28-3 7-6 17-6 28h103" id="aA"/><path fill="#3a414a" d="M117-194c89-4 53 116 60 194h-32v-121c0-31-8-49-39-48C34-167 62-67 57 0H25l-1-190h30c1 10-1 24 2 32 11-22 29-35 61-36" id="aB"/><path fill="#3a414a" d="M85-194c31 0 48 13 60 33l-1-100h32l1 261h-30c-2-10 0-23-3-31C134-8 116 4 85 4 32 4 16-35 15-94c0-66 23-100 70-100zm9 24c-40 0-46 34-46 75 0 40 6 74 45 74 42 0 51-32 51-76 0-42-9-74-50-73" id="aC"/><g id="a"><use transform="matrix(0.08024691358024691,0,0,0.08024691358024691,0,0)" xlink:href="#az"/><use transform="matrix(0.08024691358024691,0,0,0.08024691358024691,19.25925925925926,0)" xlink:href="#aA"/><use transform="matrix(0.08024691358024691,0,0,0.08024691358024691,35.308641975308646,0)" xlink:href="#aB"/><use transform="matrix(0.08024691358024691,0,0,0.08024691358024691,51.358024691358025,0)" xlink:href="#aC"/></g><path fill="#3a414a" d="M233-177c-1 41-23 64-60 70L243 0h-38l-65-103H63V0H30v-248c88 3 205-21 203 71zM63-129c60-2 137 13 137-47 0-61-80-42-137-45v92" id="aD"/><path fill="#3a414a" d="M100-194c62-1 85 37 85 99 1 63-27 99-86 99S16-35 15-95c0-66 28-99 85-99zM99-20c44 1 53-31 53-75 0-43-8-75-51-75s-53 32-53 75 10 74 51 75" id="aE"/><path fill="#3a414a" d="M24 0v-261h32V0H24" id="aF"/><path fill="#3a414a" d="M84 4C-5 8 30-112 23-190h32v120c0 31 7 50 39 49 72-2 45-101 50-169h31l1 190h-30c-1-10 1-25-2-33-11 22-28 36-60 37" id="aG"/><path fill="#3a414a" d="M115-194c55 1 70 41 70 98S169 2 115 4C84 4 66-9 55-30l1 105H24l-1-265h31l2 30c10-21 28-34 59-34zm-8 174c40 0 45-34 45-75s-6-73-45-74c-42 0-51 32-51 76 0 43 10 73 51 73" id="aH"/><g id="b"><use transform="matrix(0.08024691358024691,0,0,0.08024691358024691,0,0)" xlink:href="#aD"/><use transform="matrix(0.08024691358024691,0,0,0.08024691358024691,20.78395061728395,0)" xlink:href="#aE"/><use transform="matrix(0.08024691358024691,0,0,0.08024691358024691,36.83333333333333,0)" xlink:href="#aF"/><use transform="matrix(0.08024691358024691,0,0,0.08024691358024691,43.172839506172835,0)" xlink:href="#aF"/><use transform="matrix(0.08024691358024691,0,0,0.08024691358024691,49.51234567901234,0)" xlink:href="#aG"/><use transform="matrix(0.08024691358024691,0,0,0.08024691358024691,65.56172839506172,0)" xlink:href="#aH"/></g><path fill="#3a414a" d="M240 0l2-218c-23 76-54 145-80 218h-23L58-218 59 0H30v-248h44l77 211c21-75 51-140 76-211h43V0h-30" id="aI"/><path fill="#3a414a" d="M135-143c-3-34-86-38-87 0 15 53 115 12 119 90S17 21 10-45l28-5c4 36 97 45 98 0-10-56-113-15-118-90-4-57 82-63 122-42 12 7 21 19 24 35" id="aJ"/><path fill="#3a414a" d="M141-36C126-15 110 5 73 4 37 3 15-17 15-53c-1-64 63-63 125-63 3-35-9-54-41-54-24 1-41 7-42 31l-33-3c5-37 33-52 76-52 45 0 72 20 72 64v82c-1 20 7 32 28 27v20c-31 9-61-2-59-35zM48-53c0 20 12 33 32 33 41-3 63-29 60-74-43 2-92-5-92 41" id="aK"/><path fill="#3a414a" d="M177-190C167-65 218 103 67 71c-23-6-38-20-44-43l32-5c15 47 100 32 89-28v-30C133-14 115 1 83 1 29 1 15-40 15-95c0-56 16-97 71-98 29-1 48 16 59 35 1-10 0-23 2-32h30zM94-22c36 0 50-32 50-73 0-42-14-75-50-75-39 0-46 34-46 75s6 73 46 73" id="aL"/><path fill="#3a414a" d="M160-131c35 5 61 23 61 61C221 17 115-2 30 0v-248c76 3 177-17 177 60 0 33-19 50-47 57zm-97-11c50-1 110 9 110-42 0-47-63-36-110-37v79zm0 115c55-2 124 14 124-45 0-56-70-42-124-44v89" id="aM"/><g id="c"><use transform="matrix(0.08024691358024691,0,0,0.08024691358024691,0,0)" xlink:href="#aI"/><use transform="matrix(0.08024691358024691,0,0,0.08024691358024691,23.993827160493826,0)" xlink:href="#aA"/><use transform="matrix(0.08024691358024691,0,0,0.08024691358024691,40.04320987654321,0)" xlink:href="#aJ"/><use transform="matrix(0.08024691358024691,0,0,0.08024691358024691,54.48765432098765,0)" xlink:href="#aJ"/><use transform="matrix(0.08024691358024691,0,0,0.08024691358024691,68.9320987654321,0)" xlink:href="#aK"/><use transform="matrix(0.08024691358024691,0,0,0.08024691358024691,84.98148148148148,0)" xlink:href="#aL"/><use transform="matrix(0.08024691358024691,0,0,0.08024691358024691,101.03086419753086,0)" xlink:href="#aA"/><use transform="matrix(0.08024691358024691,0,0,0.08024691358024691,117.08024691358024,0)" xlink:href="#aM"/><use transform="matrix(0.08024691358024691,0,0,0.08024691358024691,136.3395061728395,0)" xlink:href="#aG"/><use transform="matrix(0.08024691358024691,0,0,0.08024691358024691,152.38888888888889,0)" xlink:href="#aJ"/></g><path fill="#3a414a" d="M59-47c-2 24 18 29 38 22v24C64 9 27 4 27-40v-127H5v-23h24l9-43h21v43h35v23H59v120" id="aN"/><g id="d"><use transform="matrix(0.08024691358024691,0,0,0.08024691358024691,0,0)" xlink:href="#aJ"/><use transform="matrix(0.08024691358024691,0,0,0.08024691358024691,14.444444444444443,0)" xlink:href="#aN"/><use transform="matrix(0.08024691358024691,0,0,0.08024691358024691,22.469135802469136,0)" xlink:href="#aK"/><use transform="matrix(0.08024691358024691,0,0,0.08024691358024691,38.51851851851852,0)" xlink:href="#aN"/><use transform="matrix(0.08024691358024691,0,0,0.08024691358024691,46.54320987654321,0)" xlink:href="#aA"/></g><path fill="#3a414a" d="M114-163C36-179 61-72 57 0H25l-1-190h30c1 12-1 29 2 39 6-27 23-49 58-41v29" id="aO"/><g id="e"><use transform="matrix(0.08024691358024691,0,0,0.08024691358024691,0,0)" xlink:href="#aO"/><use transform="matrix(0.08024691358024691,0,0,0.08024691358024691,9.549382716049383,0)" xlink:href="#aE"/><use transform="matrix(0.08024691358024691,0,0,0.08024691358024691,25.598765432098762,0)" xlink:href="#aE"/><use transform="matrix(0.08024691358024691,0,0,0.08024691358024691,41.64814814814815,0)" xlink:href="#aN"/></g><path fill="#3a414a" d="M210-169c-67 3-38 105-44 169h-31v-121c0-29-5-50-35-48C34-165 62-65 56 0H25l-1-190h30c1 10-1 24 2 32 10-44 99-50 107 0 11-21 27-35 58-36 85-2 47 119 55 194h-31v-121c0-29-5-49-35-48" id="aP"/><path fill="#3a414a" d="M96-169c-40 0-48 33-48 73s9 75 48 75c24 0 41-14 43-38l32 2c-6 37-31 61-74 61-59 0-76-41-82-99-10-93 101-131 147-64 4 7 5 14 7 22l-32 3c-4-21-16-35-41-35" id="aQ"/><path fill="#3a414a" d="M106-169C34-169 62-67 57 0H25v-261h32l-1 103c12-21 28-36 61-36 89 0 53 116 60 194h-32v-121c2-32-8-49-39-48" id="aR"/><g id="f"><use transform="matrix(0.08024691358024691,0,0,0.08024691358024691,0,0)" xlink:href="#aP"/><use transform="matrix(0.08024691358024691,0,0,0.08024691358024691,23.993827160493826,0)" xlink:href="#aK"/><use transform="matrix(0.08024691358024691,0,0,0.08024691358024691,40.04320987654321,0)" xlink:href="#aN"/><use transform="matrix(0.08024691358024691,0,0,0.08024691358024691,48.0679012345679,0)" xlink:href="#aQ"/><use transform="matrix(0.08024691358024691,0,0,0.08024691358024691,62.51234567901234,0)" xlink:href="#aR"/><use transform="matrix(0.08024691358024691,0,0,0.08024691358024691,78.56172839506172,0)" xlink:href="#aA"/><use transform="matrix(0.08024691358024691,0,0,0.08024691358024691,94.6111111111111,0)" xlink:href="#aJ"/></g><g id="g"><use transform="matrix(0.08024691358024691,0,0,0.08024691358024691,0,0)" xlink:href="#aN"/><use transform="matrix(0.08024691358024691,0,0,0.08024691358024691,8.024691358024691,0)" xlink:href="#aR"/><use transform="matrix(0.08024691358024691,0,0,0.08024691358024691,24.074074074074076,0)" xlink:href="#aA"/></g><g id="h"><use transform="matrix(0.08024691358024691,0,0,0.08024691358024691,0,0)" xlink:href="#aR"/><use transform="matrix(0.08024691358024691,0,0,0.08024691358024691,16.049382716049383,0)" xlink:href="#aA"/><use transform="matrix(0.08024691358024691,0,0,0.08024691358024691,32.098765432098766,0)" xlink:href="#aK"/><use transform="matrix(0.08024691358024691,0,0,0.08024691358024691,48.14814814814815,0)" xlink:href="#aC"/><use transform="matrix(0.08024691358024691,0,0,0.08024691358024691,64.19753086419753,0)" xlink:href="#aA"/><use transform="matrix(0.08024691358024691,0,0,0.08024691358024691,80.24691358024691,0)" xlink:href="#aO"/></g><g id="i"><use transform="matrix(0.08024691358024691,0,0,0.08024691358024691,0,0)" xlink:href="#aP"/><use transform="matrix(0.08024691358024691,0,0,0.08024691358024691,23.993827160493826,0)" xlink:href="#aJ"/><use transform="matrix(0.08024691358024691,0,0,0.08024691358024691,38.438271604938265,0)" xlink:href="#aL"/><use transform="matrix(0.08024691358024691,0,0,0.08024691358024691,54.487654320987644,0)" xlink:href="#aD"/><use transform="matrix(0.08024691358024691,0,0,0.08024691358024691,75.2716049382716,0)" xlink:href="#aE"/><use transform="matrix(0.08024691358024691,0,0,0.08024691358024691,91.32098765432096,0)" xlink:href="#aE"/><use transform="matrix(0.08024691358024691,0,0,0.08024691358024691,107.37037037037035,0)" xlink:href="#aN"/></g><path fill="#333" d="M24-248c120-7 223 5 221 122C244-46 201 0 124 0H24v-248zM76-40c74 7 117-18 117-86 0-67-45-88-117-82v168" id="aS"/><path fill="#333" d="M110-194c64 0 96 36 96 99 0 64-35 99-97 99-61 0-95-36-95-99 0-62 34-99 96-99zm-1 164c35 0 45-28 45-65 0-40-10-65-43-65-34 0-45 26-45 65 0 36 10 65 43 65" id="aT"/><path fill="#333" d="M185-48c-13 30-37 53-82 52C43 2 14-33 14-96s30-98 90-98c62 0 83 45 84 108H66c0 31 8 55 39 56 18 0 30-7 34-22zm-45-69c5-46-57-63-70-21-2 6-4 13-4 21h74" id="aU"/><path fill="#333" d="M137-138c1-29-70-34-71-4 15 46 118 7 119 86 1 83-164 76-172 9l43-7c4 19 20 25 44 25 33 8 57-30 24-41C81-84 22-81 20-136c-2-80 154-74 161-7" id="aV"/><g id="j"><use transform="matrix(0.06790123456790123,0,0,0.06790123456790123,0,0)" xlink:href="#aS"/><use transform="matrix(0.06790123456790123,0,0,0.06790123456790123,17.586419753086417,0)" xlink:href="#aT"/><use transform="matrix(0.06790123456790123,0,0,0.06790123456790123,32.456790123456784,0)" xlink:href="#aU"/><use transform="matrix(0.06790123456790123,0,0,0.06790123456790123,46.03703703703703,0)" xlink:href="#aV"/></g><path fill="#333" d="M135-194c87-1 58 113 63 194h-50c-7-57 23-157-34-157-59 0-34 97-39 157H25l-1-190h47c2 12-1 28 3 38 12-26 28-41 61-42" id="aW"/><path fill="#333" d="M115-3C79 11 28 4 28-45v-112H4v-33h27l15-45h31v45h36v33H77v99c-1 23 16 31 38 25v30" id="aX"/><g id="k"><use transform="matrix(0.06790123456790123,0,0,0.06790123456790123,0,0)" xlink:href="#aW"/><use transform="matrix(0.06790123456790123,0,0,0.06790123456790123,14.87037037037037,0)" xlink:href="#aT"/><use transform="matrix(0.06790123456790123,0,0,0.06790123456790123,29.74074074074074,0)" xlink:href="#aX"/></g><path fill="#333" d="M220-157c-53 9-28 100-34 157h-49v-107c1-27-5-49-29-50C55-147 81-57 75 0H25l-1-190h47c2 12-1 28 3 38 10-53 101-56 108 0 13-22 24-43 59-42 82 1 51 116 57 194h-49v-107c-1-25-5-48-29-50" id="aY"/><path fill="#333" d="M133-34C117-15 103 5 69 4 32 3 11-16 11-54c-1-60 55-63 116-61 1-26-3-47-28-47-18 1-26 9-28 27l-52-2c7-38 36-58 82-57s74 22 75 68l1 82c-1 14 12 18 25 15v27c-30 8-71 5-69-32zm-48 3c29 0 43-24 42-57-32 0-66-3-65 30 0 17 8 27 23 27" id="aZ"/><path fill="#333" d="M190-63c-7 42-38 67-86 67-59 0-84-38-90-98-12-110 154-137 174-36l-49 2c-2-19-15-32-35-32-30 0-35 28-38 64-6 74 65 87 74 30" id="ba"/><path fill="#333" d="M114-157C55-157 80-60 75 0H25v-261h50l-1 109c12-26 28-41 61-42 86-1 58 113 63 194h-50c-7-57 23-157-34-157" id="bb"/><g id="l"><use transform="matrix(0.06790123456790123,0,0,0.06790123456790123,0,0)" xlink:href="#aY"/><use transform="matrix(0.06790123456790123,0,0,0.06790123456790123,21.728395061728392,0)" xlink:href="#aZ"/><use transform="matrix(0.06790123456790123,0,0,0.06790123456790123,35.30864197530864,0)" xlink:href="#aX"/><use transform="matrix(0.06790123456790123,0,0,0.06790123456790123,43.388888888888886,0)" xlink:href="#ba"/><use transform="matrix(0.06790123456790123,0,0,0.06790123456790123,56.96913580246913,0)" xlink:href="#bb"/></g><g id="m"><use transform="matrix(0.08024691358024691,0,0,0.08024691358024691,0,0)" xlink:href="#aD"/><use transform="matrix(0.08024691358024691,0,0,0.08024691358024691,20.78395061728395,0)" xlink:href="#aE"/><use transform="matrix(0.08024691358024691,0,0,0.08024691358024691,36.83333333333333,0)" xlink:href="#aF"/><use transform="matrix(0.08024691358024691,0,0,0.08024691358024691,43.172839506172835,0)" xlink:href="#aF"/><use transform="matrix(0.08024691358024691,0,0,0.08024691358024691,49.51234567901234,0)" xlink:href="#aG"/><use transform="matrix(0.08024691358024691,0,0,0.08024691358024691,65.56172839506172,0)" xlink:href="#aH"/></g><path fill="#3a414a" d="M24-231v-30h32v30H24zM-9 49c24 4 33-6 33-30v-209h32V24c2 40-23 58-65 49V49" id="bc"/><g id="n"><use transform="matrix(0.08024691358024691,0,0,0.08024691358024691,0,0)" xlink:href="#aO"/><use transform="matrix(0.08024691358024691,0,0,0.08024691358024691,9.549382716049383,0)" xlink:href="#aA"/><use transform="matrix(0.08024691358024691,0,0,0.08024691358024691,25.598765432098762,0)" xlink:href="#bc"/><use transform="matrix(0.08024691358024691,0,0,0.08024691358024691,31.938271604938276,0)" xlink:href="#aA"/><use transform="matrix(0.08024691358024691,0,0,0.08024691358024691,47.98765432098766,0)" xlink:href="#aQ"/><use transform="matrix(0.08024691358024691,0,0,0.08024691358024691,62.4320987654321,0)" xlink:href="#aN"/><use transform="matrix(0.08024691358024691,0,0,0.08024691358024691,70.4567901234568,0)" xlink:href="#aA"/><use transform="matrix(0.08024691358024691,0,0,0.08024691358024691,86.50617283950619,0)" xlink:href="#aC"/></g><path fill="#333" d="M230 0l2-204L168 0h-37L68-204 70 0H24v-248h70l56 185 57-185h69V0h-46" id="bd"/><g id="o"><use transform="matrix(0.06790123456790123,0,0,0.06790123456790123,0,0)" xlink:href="#bd"/><use transform="matrix(0.06790123456790123,0,0,0.06790123456790123,20.30246913580247,0)" xlink:href="#aZ"/><use transform="matrix(0.06790123456790123,0,0,0.06790123456790123,33.882716049382715,0)" xlink:href="#aX"/><use transform="matrix(0.06790123456790123,0,0,0.06790123456790123,41.96296296296296,0)" xlink:href="#ba"/><use transform="matrix(0.06790123456790123,0,0,0.06790123456790123,55.54320987654321,0)" xlink:href="#bb"/><use transform="matrix(0.06790123456790123,0,0,0.06790123456790123,70.41358024691358,0)" xlink:href="#aU"/><use transform="matrix(0.06790123456790123,0,0,0.06790123456790123,83.99382716049382,0)" xlink:href="#aV"/></g><path fill="#3a414a" d="M205 0l-28-72H64L36 0H1l101-248h38L239 0h-34zm-38-99l-47-123c-12 45-31 82-46 123h93" id="be"/><g id="p"><use transform="matrix(0.08024691358024691,0,0,0.08024691358024691,0,0)" xlink:href="#be"/><use transform="matrix(0.08024691358024691,0,0,0.08024691358024691,19.25925925925926,0)" xlink:href="#aQ"/><use transform="matrix(0.08024691358024691,0,0,0.08024691358024691,33.7037037037037,0)" xlink:href="#aQ"/><use transform="matrix(0.08024691358024691,0,0,0.08024691358024691,48.148148148148145,0)" xlink:href="#aA"/><use transform="matrix(0.08024691358024691,0,0,0.08024691358024691,64.19753086419753,0)" xlink:href="#aH"/><use transform="matrix(0.08024691358024691,0,0,0.08024691358024691,80.24691358024691,0)" xlink:href="#aN"/><use transform="matrix(0.08024691358024691,0,0,0.08024691358024691,88.2716049382716,0)" xlink:href="#aA"/><use transform="matrix(0.08024691358024691,0,0,0.08024691358024691,104.32098765432099,0)" xlink:href="#aC"/></g><path fill="#3a414a" d="M143 4C61 4 22-44 18-125c-5-107 100-154 193-111 17 8 29 25 37 43l-32 9c-13-25-37-40-76-40-61 0-88 39-88 99 0 61 29 100 91 101 35 0 62-11 79-27v-45h-74v-28h105v86C228-13 192 4 143 4" id="bf"/><g id="q"><use transform="matrix(0.08024691358024691,0,0,0.08024691358024691,0,0)" xlink:href="#bf"/><use transform="matrix(0.08024691358024691,0,0,0.08024691358024691,22.469135802469136,0)" xlink:href="#aA"/><use transform="matrix(0.08024691358024691,0,0,0.08024691358024691,38.51851851851852,0)" xlink:href="#aN"/></g><path fill="#3a414a" d="M143 0L79-87 56-68V0H24v-261h32v163l83-92h37l-77 82L181 0h-38" id="bg"/><g id="r"><use transform="matrix(0.08024691358024691,0,0,0.08024691358024691,0,0)" xlink:href="#aM"/><use transform="matrix(0.08024691358024691,0,0,0.08024691358024691,19.25925925925926,0)" xlink:href="#aF"/><use transform="matrix(0.08024691358024691,0,0,0.08024691358024691,25.598765432098762,0)" xlink:href="#aE"/><use transform="matrix(0.08024691358024691,0,0,0.08024691358024691,41.64814814814815,0)" xlink:href="#aQ"/><use transform="matrix(0.08024691358024691,0,0,0.08024691358024691,56.092592592592595,0)" xlink:href="#bg"/></g><path fill="#3a414a" d="M234-2c-28 10-62 0-77-18C117 19 8 12 13-65c3-43 29-61 60-76-25-40-17-114 47-108 35 3 59 15 59 50 0 44-40 53-71 69 14 26 32 50 51 72 14-21 24-43 30-72l26 8c-9 33-21 57-38 82 13 13 33 22 57 15v23zM97-151c25-10 52-18 56-48-1-18-13-29-33-29-42 0-39 50-23 77zM42-66c-3 51 71 58 98 28-20-24-41-51-56-80-23 10-40 24-42 52" id="bh"/><use transform="matrix(0.08024691358024691,0,0,0.08024691358024691,0,0)" xlink:href="#bh" id="s"/><path fill="#3a414a" d="M30-248c87 1 191-15 191 75 0 78-77 80-158 76V0H30v-248zm33 125c57 0 124 11 124-50 0-59-68-47-124-48v98" id="bi"/><g id="t"><use transform="matrix(0.08024691358024691,0,0,0.08024691358024691,0,0)" xlink:href="#bi"/><use transform="matrix(0.08024691358024691,0,0,0.08024691358024691,19.25925925925926,0)" xlink:href="#aO"/><use transform="matrix(0.08024691358024691,0,0,0.08024691358024691,28.80864197530864,0)" xlink:href="#aE"/><use transform="matrix(0.08024691358024691,0,0,0.08024691358024691,44.858024691358025,0)" xlink:href="#aQ"/><use transform="matrix(0.08024691358024691,0,0,0.08024691358024691,59.30246913580247,0)" xlink:href="#aA"/><use transform="matrix(0.08024691358024691,0,0,0.08024691358024691,75.35185185185185,0)" xlink:href="#aJ"/><use transform="matrix(0.08024691358024691,0,0,0.08024691358024691,89.79629629629629,0)" xlink:href="#aJ"/></g><g id="u"><use transform="matrix(0.07407407407407406,0,0,0.07407407407407406,0,0)" xlink:href="#az"/><use transform="matrix(0.07407407407407406,0,0,0.07407407407407406,17.777777777777775,0)" xlink:href="#aR"/><use transform="matrix(0.07407407407407406,0,0,0.07407407407407406,32.59259259259259,0)" xlink:href="#aE"/><use transform="matrix(0.07407407407407406,0,0,0.07407407407407406,47.4074074074074,0)" xlink:href="#aG"/><use transform="matrix(0.07407407407407406,0,0,0.07407407407407406,62.22222222222221,0)" xlink:href="#aF"/><use transform="matrix(0.07407407407407406,0,0,0.07407407407407406,68.07407407407406,0)" xlink:href="#aC"/></g><g id="v"><use transform="matrix(0.07407407407407406,0,0,0.07407407407407406,0,0)" xlink:href="#aQ"/><use transform="matrix(0.07407407407407406,0,0,0.07407407407407406,13.33333333333333,0)" xlink:href="#aO"/><use transform="matrix(0.07407407407407406,0,0,0.07407407407407406,22.148148148148145,0)" xlink:href="#aA"/><use transform="matrix(0.07407407407407406,0,0,0.07407407407407406,36.962962962962955,0)" xlink:href="#aK"/><use transform="matrix(0.07407407407407406,0,0,0.07407407407407406,51.777777777777764,0)" xlink:href="#aN"/><use transform="matrix(0.07407407407407406,0,0,0.07407407407407406,59.18518518518517,0)" xlink:href="#aA"/></g><path fill="#3a414a" d="M103-251c84 0 111 97 45 133-19 10-37 24-39 52H78c0-63 77-55 77-114 0-30-21-42-52-43-32 0-53 17-56 46l-32-2c7-45 34-72 88-72zM77 0v-35h34V0H77" id="bj"/><g id="w"><use transform="matrix(0.07407407407407406,0,0,0.07407407407407406,0,0)" xlink:href="#aO"/><use transform="matrix(0.07407407407407406,0,0,0.07407407407407406,8.814814814814813,0)" xlink:href="#aE"/><use transform="matrix(0.07407407407407406,0,0,0.07407407407407406,23.62962962962963,0)" xlink:href="#aF"/><use transform="matrix(0.07407407407407406,0,0,0.07407407407407406,29.481481481481477,0)" xlink:href="#aF"/><use transform="matrix(0.07407407407407406,0,0,0.07407407407407406,35.33333333333333,0)" xlink:href="#aG"/><use transform="matrix(0.07407407407407406,0,0,0.07407407407407406,50.14814814814814,0)" xlink:href="#aH"/><use transform="matrix(0.07407407407407406,0,0,0.07407407407407406,64.96296296296295,0)" xlink:href="#bj"/></g><g id="x"><use transform="matrix(0.08024691358024691,0,0,0.08024691358024691,0,0)" xlink:href="#aI"/><use transform="matrix(0.08024691358024691,0,0,0.08024691358024691,23.993827160493826,0)" xlink:href="#aK"/><use transform="matrix(0.08024691358024691,0,0,0.08024691358024691,40.04320987654321,0)" xlink:href="#aB"/><use transform="matrix(0.08024691358024691,0,0,0.08024691358024691,56.092592592592595,0)" xlink:href="#aK"/><use transform="matrix(0.08024691358024691,0,0,0.08024691358024691,72.14197530864197,0)" xlink:href="#aL"/><use transform="matrix(0.08024691358024691,0,0,0.08024691358024691,88.19135802469135,0)" xlink:href="#aA"/><use transform="matrix(0.08024691358024691,0,0,0.08024691358024691,104.24074074074073,0)" xlink:href="#aP"/><use transform="matrix(0.08024691358024691,0,0,0.08024691358024691,128.23456790123456,0)" xlink:href="#aA"/><use transform="matrix(0.08024691358024691,0,0,0.08024691358024691,144.28395061728395,0)" xlink:href="#aB"/><use transform="matrix(0.08024691358024691,0,0,0.08024691358024691,160.33333333333334,0)" xlink:href="#aN"/></g><path fill="#3a414a" d="M212-179c-10-28-35-45-73-45-59 0-87 40-87 99 0 60 29 101 89 101 43 0 62-24 78-52l27 14C228-24 195 4 139 4 59 4 22-46 18-125c-6-104 99-153 187-111 19 9 31 26 39 46" id="bk"/><g id="y"><use transform="matrix(0.08024691358024691,0,0,0.08024691358024691,0,0)" xlink:href="#bk"/><use transform="matrix(0.08024691358024691,0,0,0.08024691358024691,20.78395061728395,0)" xlink:href="#aE"/><use transform="matrix(0.08024691358024691,0,0,0.08024691358024691,36.83333333333333,0)" xlink:href="#aB"/><use transform="matrix(0.08024691358024691,0,0,0.08024691358024691,52.8827160493827,0)" xlink:href="#aN"/><use transform="matrix(0.08024691358024691,0,0,0.08024691358024691,60.9074074074074,0)" xlink:href="#aO"/><use transform="matrix(0.08024691358024691,0,0,0.08024691358024691,70.45679012345678,0)" xlink:href="#aK"/><use transform="matrix(0.08024691358024691,0,0,0.08024691358024691,86.50617283950616,0)" xlink:href="#aQ"/><use transform="matrix(0.08024691358024691,0,0,0.08024691358024691,100.9506172839506,0)" xlink:href="#aN"/></g><path fill="#3a414a" d="M24-231v-30h32v30H24zM24 0v-190h32V0H24" id="bl"/><path fill="#3a414a" d="M108 0H70L1-190h34L89-25l56-165h34" id="bm"/><g id="z"><use transform="matrix(0.08024691358024691,0,0,0.08024691358024691,0,0)" xlink:href="#aO"/><use transform="matrix(0.08024691358024691,0,0,0.08024691358024691,9.549382716049383,0)" xlink:href="#aA"/><use transform="matrix(0.08024691358024691,0,0,0.08024691358024691,25.598765432098762,0)" xlink:href="#aQ"/><use transform="matrix(0.08024691358024691,0,0,0.08024691358024691,40.04320987654321,0)" xlink:href="#aA"/><use transform="matrix(0.08024691358024691,0,0,0.08024691358024691,56.092592592592595,0)" xlink:href="#bl"/><use transform="matrix(0.08024691358024691,0,0,0.08024691358024691,62.4320987654321,0)" xlink:href="#bm"/><use transform="matrix(0.08024691358024691,0,0,0.08024691358024691,76.87654320987654,0)" xlink:href="#aA"/><use transform="matrix(0.08024691358024691,0,0,0.08024691358024691,92.92592592592592,0)" xlink:href="#aJ"/></g><path fill="#3a414a" d="M206 0h-36l-40-164L89 0H53L-1-190h32L70-26l43-164h34l41 164 42-164h31" id="bn"/><g id="A"><use transform="matrix(0.08024691358024691,0,0,0.08024691358024691,0,0)" xlink:href="#aB"/><use transform="matrix(0.08024691358024691,0,0,0.08024691358024691,16.049382716049383,0)" xlink:href="#aA"/><use transform="matrix(0.08024691358024691,0,0,0.08024691358024691,32.098765432098766,0)" xlink:href="#bn"/></g><g id="B"><use transform="matrix(0.08024691358024691,0,0,0.08024691358024691,0,0)" xlink:href="#aO"/><use transform="matrix(0.08024691358024691,0,0,0.08024691358024691,9.549382716049383,0)" xlink:href="#aE"/><use transform="matrix(0.08024691358024691,0,0,0.08024691358024691,25.598765432098762,0)" xlink:href="#aF"/><use transform="matrix(0.08024691358024691,0,0,0.08024691358024691,31.938271604938276,0)" xlink:href="#aF"/><use transform="matrix(0.08024691358024691,0,0,0.08024691358024691,38.27777777777778,0)" xlink:href="#aG"/><use transform="matrix(0.08024691358024691,0,0,0.08024691358024691,54.327160493827165,0)" xlink:href="#aH"/></g><g id="C"><use transform="matrix(0.08024691358024691,0,0,0.08024691358024691,0,0)" xlink:href="#bk"/><use transform="matrix(0.08024691358024691,0,0,0.08024691358024691,20.78395061728395,0)" xlink:href="#aO"/><use transform="matrix(0.08024691358024691,0,0,0.08024691358024691,30.333333333333332,0)" xlink:href="#aA"/><use transform="matrix(0.08024691358024691,0,0,0.08024691358024691,46.382716049382715,0)" xlink:href="#aK"/><use transform="matrix(0.08024691358024691,0,0,0.08024691358024691,62.4320987654321,0)" xlink:href="#aN"/><use transform="matrix(0.08024691358024691,0,0,0.08024691358024691,70.4567901234568,0)" xlink:href="#aA"/></g><path fill="#3a414a" d="M179-190L93 31C79 59 56 82 12 73V49c39 6 53-20 64-50L1-190h34L92-34l54-156h33" id="bo"/><g id="D"><use transform="matrix(0.08024691358024691,0,0,0.08024691358024691,0,0)" xlink:href="#az"/><use transform="matrix(0.08024691358024691,0,0,0.08024691358024691,19.25925925925926,0)" xlink:href="#bo"/><use transform="matrix(0.08024691358024691,0,0,0.08024691358024691,33.7037037037037,0)" xlink:href="#aB"/><use transform="matrix(0.08024691358024691,0,0,0.08024691358024691,49.753086419753096,0)" xlink:href="#aN"/><use transform="matrix(0.08024691358024691,0,0,0.08024691358024691,57.77777777777777,0)" xlink:href="#aR"/><use transform="matrix(0.08024691358024691,0,0,0.08024691358024691,73.82716049382717,0)" xlink:href="#aA"/><use transform="matrix(0.08024691358024691,0,0,0.08024691358024691,89.87654320987654,0)" xlink:href="#aN"/><use transform="matrix(0.08024691358024691,0,0,0.08024691358024691,97.90123456790124,0)" xlink:href="#bl"/><use transform="matrix(0.08024691358024691,0,0,0.08024691358024691,104.24074074074075,0)" xlink:href="#aQ"/></g><path fill="#3a414a" d="M127-220V0H93v-220H8v-28h204v28h-85" id="bp"/><g id="E"><use transform="matrix(0.08024691358024691,0,0,0.08024691358024691,0,0)" xlink:href="#bp"/><use transform="matrix(0.08024691358024691,0,0,0.08024691358024691,16.530864197530864,0)" xlink:href="#aO"/><use transform="matrix(0.08024691358024691,0,0,0.08024691358024691,26.080246913580247,0)" xlink:href="#aK"/><use transform="matrix(0.08024691358024691,0,0,0.08024691358024691,42.12962962962963,0)" xlink:href="#aB"/><use transform="matrix(0.08024691358024691,0,0,0.08024691358024691,58.179012345679006,0)" xlink:href="#aJ"/><use transform="matrix(0.08024691358024691,0,0,0.08024691358024691,72.62345679012346,0)" xlink:href="#aK"/><use transform="matrix(0.08024691358024691,0,0,0.08024691358024691,88.67283950617283,0)" xlink:href="#aQ"/><use transform="matrix(0.08024691358024691,0,0,0.08024691358024691,103.11728395061728,0)" xlink:href="#aN"/><use transform="matrix(0.08024691358024691,0,0,0.08024691358024691,111.14197530864197,0)" xlink:href="#bl"/><use transform="matrix(0.08024691358024691,0,0,0.08024691358024691,117.48148148148148,0)" xlink:href="#aE"/><use transform="matrix(0.08024691358024691,0,0,0.08024691358024691,133.53086419753086,0)" xlink:href="#aB"/></g><path fill="#3a414a" d="M101-234c-31-9-42 10-38 44h38v23H63V0H32v-167H5v-23h27c-7-52 17-82 69-68v24" id="bq"/><g id="F"><use transform="matrix(0.08024691358024691,0,0,0.08024691358024691,0,0)" xlink:href="#bq"/><use transform="matrix(0.08024691358024691,0,0,0.08024691358024691,8.024691358024691,0)" xlink:href="#aE"/><use transform="matrix(0.08024691358024691,0,0,0.08024691358024691,24.074074074074076,0)" xlink:href="#aO"/></g><g id="G"><use transform="matrix(0.08024691358024691,0,0,0.08024691358024691,0,0)" xlink:href="#aP"/><use transform="matrix(0.08024691358024691,0,0,0.08024691358024691,23.993827160493826,0)" xlink:href="#aA"/><use transform="matrix(0.08024691358024691,0,0,0.08024691358024691,40.04320987654321,0)" xlink:href="#aJ"/><use transform="matrix(0.08024691358024691,0,0,0.08024691358024691,54.48765432098765,0)" xlink:href="#aJ"/><use transform="matrix(0.08024691358024691,0,0,0.08024691358024691,68.9320987654321,0)" xlink:href="#aK"/><use transform="matrix(0.08024691358024691,0,0,0.08024691358024691,84.98148148148148,0)" xlink:href="#aL"/><use transform="matrix(0.08024691358024691,0,0,0.08024691358024691,101.03086419753086,0)" xlink:href="#aA"/><use transform="matrix(0.08024691358024691,0,0,0.08024691358024691,117.08024691358024,0)" xlink:href="#aJ"/></g><path fill="#3a414a" d="M115-194c53 0 69 39 70 98 0 66-23 100-70 100C84 3 66-7 56-30L54 0H23l1-261h32v101c10-23 28-34 59-34zm-8 174c40 0 45-34 45-75 0-40-5-75-45-74-42 0-51 32-51 76 0 43 10 73 51 73" id="br"/><g id="H"><use transform="matrix(0.07407407407407406,0,0,0.07407407407407406,0,0)" xlink:href="#bi"/><use transform="matrix(0.07407407407407406,0,0,0.07407407407407406,17.777777777777775,0)" xlink:href="#aG"/><use transform="matrix(0.07407407407407406,0,0,0.07407407407407406,32.59259259259259,0)" xlink:href="#br"/><use transform="matrix(0.07407407407407406,0,0,0.07407407407407406,47.4074074074074,0)" xlink:href="#aF"/><use transform="matrix(0.07407407407407406,0,0,0.07407407407407406,53.259259259259245,0)" xlink:href="#bl"/><use transform="matrix(0.07407407407407406,0,0,0.07407407407407406,59.1111111111111,0)" xlink:href="#aJ"/><use transform="matrix(0.07407407407407406,0,0,0.07407407407407406,72.44444444444443,0)" xlink:href="#aR"/><use transform="matrix(0.07407407407407406,0,0,0.07407407407407406,87.25925925925924,0)" xlink:href="#aA"/><use transform="matrix(0.07407407407407406,0,0,0.07407407407407406,102.07407407407405,0)" xlink:href="#aC"/></g><path fill="#3a414a" d="M30 0v-248h33v221h125V0H30" id="bs"/><path fill="#3a414a" d="M27 0v-27h64v-190l-56 39v-29l58-41h29v221h61V0H27" id="bt"/><g id="I"><use transform="matrix(0.07407407407407406,0,0,0.07407407407407406,0,0)" xlink:href="#bs"/><use transform="matrix(0.07407407407407406,0,0,0.07407407407407406,14.814814814814811,0)" xlink:href="#bt"/></g><g id="J"><use transform="matrix(0.07407407407407406,0,0,0.07407407407407406,0,0)" xlink:href="#aI"/><use transform="matrix(0.07407407407407406,0,0,0.07407407407407406,22.14814814814814,0)" xlink:href="#aA"/><use transform="matrix(0.07407407407407406,0,0,0.07407407407407406,36.962962962962955,0)" xlink:href="#aJ"/><use transform="matrix(0.07407407407407406,0,0,0.07407407407407406,50.29629629629628,0)" xlink:href="#aJ"/><use transform="matrix(0.07407407407407406,0,0,0.07407407407407406,63.62962962962961,0)" xlink:href="#aK"/><use transform="matrix(0.07407407407407406,0,0,0.07407407407407406,78.44444444444443,0)" xlink:href="#aL"/><use transform="matrix(0.07407407407407406,0,0,0.07407407407407406,93.25925925925924,0)" xlink:href="#aA"/><use transform="matrix(0.07407407407407406,0,0,0.07407407407407406,108.07407407407405,0)" xlink:href="#aJ"/></g><g id="K"><use transform="matrix(0.07407407407407406,0,0,0.07407407407407406,0,0)" xlink:href="#aN"/><use transform="matrix(0.07407407407407406,0,0,0.07407407407407406,7.407407407407406,0)" xlink:href="#aE"/></g><g id="L"><use transform="matrix(0.07407407407407406,0,0,0.07407407407407406,0,0)" xlink:href="#aJ"/><use transform="matrix(0.07407407407407406,0,0,0.07407407407407406,13.33333333333333,0)" xlink:href="#aG"/><use transform="matrix(0.07407407407407406,0,0,0.07407407407407406,28.14814814814814,0)" xlink:href="#br"/><use transform="matrix(0.07407407407407406,0,0,0.07407407407407406,42.962962962962955,0)" xlink:href="#aP"/><use transform="matrix(0.07407407407407406,0,0,0.07407407407407406,65.1111111111111,0)" xlink:href="#bl"/><use transform="matrix(0.07407407407407406,0,0,0.07407407407407406,70.96296296296295,0)" xlink:href="#aN"/></g><g id="M"><use transform="matrix(0.07407407407407406,0,0,0.07407407407407406,0,0)" xlink:href="#aE"/><use transform="matrix(0.07407407407407406,0,0,0.07407407407407406,14.814814814814811,0)" xlink:href="#aB"/></g><path fill="#3a414a" d="M101-251c82-7 93 87 43 132L82-64C71-53 59-42 53-27h129V0H18c2-99 128-94 128-182 0-28-16-43-45-43s-46 15-49 41l-32-3c6-41 34-60 81-64" id="bu"/><g id="N"><use transform="matrix(0.07407407407407406,0,0,0.07407407407407406,0,0)" xlink:href="#bs"/><use transform="matrix(0.07407407407407406,0,0,0.07407407407407406,14.814814814814811,0)" xlink:href="#bu"/></g><g id="O"><use transform="matrix(0.06172839506172839,0,0,0.06172839506172839,0,0)" xlink:href="#bs"/><use transform="matrix(0.06172839506172839,0,0,0.06172839506172839,12.345679012345679,0)" xlink:href="#bt"/></g><g id="P"><use transform="matrix(0.06172839506172839,0,0,0.06172839506172839,0,0)" xlink:href="#aM"/><use transform="matrix(0.06172839506172839,0,0,0.06172839506172839,14.814814814814813,0)" xlink:href="#aF"/><use transform="matrix(0.06172839506172839,0,0,0.06172839506172839,19.691358024691354,0)" xlink:href="#aE"/><use transform="matrix(0.06172839506172839,0,0,0.06172839506172839,32.03703703703703,0)" xlink:href="#aQ"/><use transform="matrix(0.06172839506172839,0,0,0.06172839506172839,43.14814814814814,0)" xlink:href="#bg"/></g><g id="Q"><use transform="matrix(0.06172839506172839,0,0,0.06172839506172839,0,0)" xlink:href="#aN"/><use transform="matrix(0.06172839506172839,0,0,0.06172839506172839,6.172839506172839,0)" xlink:href="#aR"/><use transform="matrix(0.06172839506172839,0,0,0.06172839506172839,18.51851851851852,0)" xlink:href="#aK"/><use transform="matrix(0.06172839506172839,0,0,0.06172839506172839,30.864197530864196,0)" xlink:href="#aN"/></g><g id="R"><use transform="matrix(0.06172839506172839,0,0,0.06172839506172839,0,0)" xlink:href="#aQ"/><use transform="matrix(0.06172839506172839,0,0,0.06172839506172839,11.11111111111111,0)" xlink:href="#aE"/><use transform="matrix(0.06172839506172839,0,0,0.06172839506172839,23.45679012345679,0)" xlink:href="#aB"/><use transform="matrix(0.06172839506172839,0,0,0.06172839506172839,35.80246913580247,0)" xlink:href="#aN"/><use transform="matrix(0.06172839506172839,0,0,0.06172839506172839,41.97530864197531,0)" xlink:href="#aK"/><use transform="matrix(0.06172839506172839,0,0,0.06172839506172839,54.32098765432099,0)" xlink:href="#bl"/><use transform="matrix(0.06172839506172839,0,0,0.06172839506172839,59.19753086419753,0)" xlink:href="#aB"/><use transform="matrix(0.06172839506172839,0,0,0.06172839506172839,71.54320987654322,0)" xlink:href="#aJ"/></g><path fill="#3a414a" d="M16-82v-28h88v28H16" id="bv"/><g id="S"><use transform="matrix(0.06172839506172839,0,0,0.06172839506172839,0,0)" xlink:href="#aQ"/><use transform="matrix(0.06172839506172839,0,0,0.06172839506172839,11.11111111111111,0)" xlink:href="#aO"/><use transform="matrix(0.06172839506172839,0,0,0.06172839506172839,18.45679012345679,0)" xlink:href="#aE"/><use transform="matrix(0.06172839506172839,0,0,0.06172839506172839,30.80246913580247,0)" xlink:href="#aJ"/><use transform="matrix(0.06172839506172839,0,0,0.06172839506172839,41.91358024691358,0)" xlink:href="#aJ"/><use transform="matrix(0.06172839506172839,0,0,0.06172839506172839,53.0246913580247,0)" xlink:href="#bv"/><use transform="matrix(0.06172839506172839,0,0,0.06172839506172839,60.370370370370374,0)" xlink:href="#aQ"/><use transform="matrix(0.06172839506172839,0,0,0.06172839506172839,71.48148148148148,0)" xlink:href="#aR"/><use transform="matrix(0.06172839506172839,0,0,0.06172839506172839,83.82716049382717,0)" xlink:href="#aK"/><use transform="matrix(0.06172839506172839,0,0,0.06172839506172839,96.17283950617285,0)" xlink:href="#bl"/><use transform="matrix(0.06172839506172839,0,0,0.06172839506172839,101.0493827160494,0)" xlink:href="#aB"/></g><g id="T"><use transform="matrix(0.06172839506172839,0,0,0.06172839506172839,0,0)" xlink:href="#aP"/><use transform="matrix(0.06172839506172839,0,0,0.06172839506172839,18.456790123456788,0)" xlink:href="#aA"/><use transform="matrix(0.06172839506172839,0,0,0.06172839506172839,30.80246913580247,0)" xlink:href="#aJ"/><use transform="matrix(0.06172839506172839,0,0,0.06172839506172839,41.91358024691358,0)" xlink:href="#aJ"/><use transform="matrix(0.06172839506172839,0,0,0.06172839506172839,53.0246913580247,0)" xlink:href="#aK"/><use transform="matrix(0.06172839506172839,0,0,0.06172839506172839,65.37037037037038,0)" xlink:href="#aL"/><use transform="matrix(0.06172839506172839,0,0,0.06172839506172839,77.71604938271606,0)" xlink:href="#aA"/><use transform="matrix(0.06172839506172839,0,0,0.06172839506172839,90.06172839506175,0)" xlink:href="#aJ"/></g><g id="U"><use transform="matrix(0.07407407407407406,0,0,0.07407407407407406,0,0)" xlink:href="#aI"/><use transform="matrix(0.07407407407407406,0,0,0.07407407407407406,22.14814814814814,0)" xlink:href="#aA"/><use transform="matrix(0.07407407407407406,0,0,0.07407407407407406,36.962962962962955,0)" xlink:href="#aO"/><use transform="matrix(0.07407407407407406,0,0,0.07407407407407406,45.77777777777778,0)" xlink:href="#bg"/><use transform="matrix(0.07407407407407406,0,0,0.07407407407407406,59.1111111111111,0)" xlink:href="#aF"/><use transform="matrix(0.07407407407407406,0,0,0.07407407407407406,64.96296296296295,0)" xlink:href="#aA"/></g><g id="V"><use transform="matrix(0.07407407407407406,0,0,0.07407407407407406,0,0)" xlink:href="#aO"/><use transform="matrix(0.07407407407407406,0,0,0.07407407407407406,8.814814814814813,0)" xlink:href="#aE"/><use transform="matrix(0.07407407407407406,0,0,0.07407407407407406,23.62962962962963,0)" xlink:href="#aE"/><use transform="matrix(0.07407407407407406,0,0,0.07407407407407406,38.444444444444436,0)" xlink:href="#aN"/></g><g id="W"><use transform="matrix(0.07407407407407406,0,0,0.07407407407407406,0,0)" xlink:href="#aE"/><use transform="matrix(0.07407407407407406,0,0,0.07407407407407406,14.814814814814811,0)" xlink:href="#bq"/></g><g id="X"><use transform="matrix(0.07407407407407406,0,0,0.07407407407407406,0,0)" xlink:href="#aK"/><use transform="matrix(0.07407407407407406,0,0,0.07407407407407406,14.814814814814811,0)" xlink:href="#aF"/><use transform="matrix(0.07407407407407406,0,0,0.07407407407407406,20.66666666666666,0)" xlink:href="#aF"/></g><g id="Y"><use transform="matrix(0.07407407407407406,0,0,0.07407407407407406,0,0)" xlink:href="#aJ"/><use transform="matrix(0.07407407407407406,0,0,0.07407407407407406,13.33333333333333,0)" xlink:href="#aG"/><use transform="matrix(0.07407407407407406,0,0,0.07407407407407406,28.14814814814814,0)" xlink:href="#br"/><use transform="matrix(0.07407407407407406,0,0,0.07407407407407406,42.962962962962955,0)" xlink:href="#aP"/><use transform="matrix(0.07407407407407406,0,0,0.07407407407407406,65.1111111111111,0)" xlink:href="#bl"/><use transform="matrix(0.07407407407407406,0,0,0.07407407407407406,70.96296296296295,0)" xlink:href="#aN"/><use transform="matrix(0.07407407407407406,0,0,0.07407407407407406,78.37037037037035,0)" xlink:href="#aN"/><use transform="matrix(0.07407407407407406,0,0,0.07407407407407406,85.77777777777776,0)" xlink:href="#aA"/><use transform="matrix(0.07407407407407406,0,0,0.07407407407407406,100.59259259259257,0)" xlink:href="#aC"/></g><g id="Z"><use transform="matrix(0.07407407407407406,0,0,0.07407407407407406,0,0)" xlink:href="#aP"/><use transform="matrix(0.07407407407407406,0,0,0.07407407407407406,22.14814814814814,0)" xlink:href="#aA"/><use transform="matrix(0.07407407407407406,0,0,0.07407407407407406,36.962962962962955,0)" xlink:href="#aJ"/><use transform="matrix(0.07407407407407406,0,0,0.07407407407407406,50.29629629629628,0)" xlink:href="#aJ"/><use transform="matrix(0.07407407407407406,0,0,0.07407407407407406,63.62962962962961,0)" xlink:href="#aK"/><use transform="matrix(0.07407407407407406,0,0,0.07407407407407406,78.44444444444443,0)" xlink:href="#aL"/><use transform="matrix(0.07407407407407406,0,0,0.07407407407407406,93.25925925925924,0)" xlink:href="#aA"/><use transform="matrix(0.07407407407407406,0,0,0.07407407407407406,108.07407407407405,0)" xlink:href="#aJ"/></g><path fill="#333" d="M175 0L67-191c6 58 2 128 3 191H24v-248h59L193-55c-6-58-2-129-3-193h46V0h-61" id="bw"/><g id="aa"><use transform="matrix(0.04938271604938272,0,0,0.04938271604938272,0,0)" xlink:href="#bw"/><use transform="matrix(0.04938271604938272,0,0,0.04938271604938272,12.790123456790125,0)" xlink:href="#aT"/></g><path fill="#333" d="M146-102V0H94v-102L6-248h54l60 105 60-105h54" id="bx"/><g id="ab"><use transform="matrix(0.06790123456790123,0,0,0.06790123456790123,0,0)" xlink:href="#bx"/><use transform="matrix(0.06790123456790123,0,0,0.06790123456790123,14.938271604938269,0)" xlink:href="#aU"/><use transform="matrix(0.06790123456790123,0,0,0.06790123456790123,28.518518518518515,0)" xlink:href="#aV"/></g><g id="ac"><use transform="matrix(0.08024691358024691,0,0,0.08024691358024691,0,0)" xlink:href="#aD"/><use transform="matrix(0.08024691358024691,0,0,0.08024691358024691,20.78395061728395,0)" xlink:href="#aE"/><use transform="matrix(0.08024691358024691,0,0,0.08024691358024691,36.83333333333333,0)" xlink:href="#aF"/><use transform="matrix(0.08024691358024691,0,0,0.08024691358024691,43.172839506172835,0)" xlink:href="#aF"/><use transform="matrix(0.08024691358024691,0,0,0.08024691358024691,49.51234567901234,0)" xlink:href="#aG"/><use transform="matrix(0.08024691358024691,0,0,0.08024691358024691,65.56172839506172,0)" xlink:href="#aH"/></g><path fill="#3a414a" d="M33 0v-38h34V0H33" id="by"/><g id="ad"><use transform="matrix(0.08024691358024691,0,0,0.08024691358024691,0,0)" xlink:href="#aR"/><use transform="matrix(0.08024691358024691,0,0,0.08024691358024691,16.049382716049383,0)" xlink:href="#aA"/><use transform="matrix(0.08024691358024691,0,0,0.08024691358024691,32.098765432098766,0)" xlink:href="#aK"/><use transform="matrix(0.08024691358024691,0,0,0.08024691358024691,48.14814814814815,0)" xlink:href="#aC"/><use transform="matrix(0.08024691358024691,0,0,0.08024691358024691,64.19753086419753,0)" xlink:href="#aA"/><use transform="matrix(0.08024691358024691,0,0,0.08024691358024691,80.24691358024691,0)" xlink:href="#aO"/><use transform="matrix(0.08024691358024691,0,0,0.08024691358024691,88.19135802469135,0)" xlink:href="#by"/><use transform="matrix(0.08024691358024691,0,0,0.08024691358024691,96.21604938271605,0)" xlink:href="#by"/><use transform="matrix(0.08024691358024691,0,0,0.08024691358024691,104.24074074074075,0)" xlink:href="#by"/></g><g id="ae"><use transform="matrix(0.08024691358024691,0,0,0.08024691358024691,0,0)" xlink:href="#aP"/><use transform="matrix(0.08024691358024691,0,0,0.08024691358024691,23.993827160493826,0)" xlink:href="#aJ"/><use transform="matrix(0.08024691358024691,0,0,0.08024691358024691,38.438271604938265,0)" xlink:href="#aL"/><use transform="matrix(0.08024691358024691,0,0,0.08024691358024691,54.487654320987644,0)" xlink:href="#aD"/><use transform="matrix(0.08024691358024691,0,0,0.08024691358024691,75.2716049382716,0)" xlink:href="#aE"/><use transform="matrix(0.08024691358024691,0,0,0.08024691358024691,91.32098765432096,0)" xlink:href="#aE"/><use transform="matrix(0.08024691358024691,0,0,0.08024691358024691,107.37037037037035,0)" xlink:href="#aN"/></g><g id="af"><use transform="matrix(0.08024691358024691,0,0,0.08024691358024691,0,0)" xlink:href="#aP"/><use transform="matrix(0.08024691358024691,0,0,0.08024691358024691,23.993827160493826,0)" xlink:href="#aJ"/><use transform="matrix(0.08024691358024691,0,0,0.08024691358024691,38.438271604938265,0)" xlink:href="#aL"/><use transform="matrix(0.08024691358024691,0,0,0.08024691358024691,54.487654320987644,0)" xlink:href="#bk"/><use transform="matrix(0.08024691358024691,0,0,0.08024691358024691,75.2716049382716,0)" xlink:href="#aE"/><use transform="matrix(0.08024691358024691,0,0,0.08024691358024691,91.32098765432096,0)" xlink:href="#aG"/><use transform="matrix(0.08024691358024691,0,0,0.08024691358024691,107.37037037037035,0)" xlink:href="#aB"/><use transform="matrix(0.08024691358024691,0,0,0.08024691358024691,123.41975308641973,0)" xlink:href="#aN"/></g><path fill="#3a414a" d="M140-251c81 0 123 46 123 126C263-46 219 4 140 4 59 4 17-45 17-125s42-126 123-126zm0 227c63 0 89-41 89-101s-29-99-89-99c-61 0-89 39-89 99S79-25 140-24" id="bz"/><g id="ag"><use transform="matrix(0.08641975308641973,0,0,0.08641975308641973,0,0)" xlink:href="#bz"/><use transform="matrix(0.08641975308641973,0,0,0.08641975308641973,24.197530864197525,0)" xlink:href="#br"/><use transform="matrix(0.08641975308641973,0,0,0.08641975308641973,41.48148148148147,0)" xlink:href="#aJ"/><use transform="matrix(0.08641975308641973,0,0,0.08641975308641973,57.03703703703702,0)" xlink:href="#aQ"/><use transform="matrix(0.08641975308641973,0,0,0.08641975308641973,72.59259259259257,0)" xlink:href="#aG"/><use transform="matrix(0.08641975308641973,0,0,0.08641975308641973,89.87654320987653,0)" xlink:href="#aO"/><use transform="matrix(0.08641975308641973,0,0,0.08641975308641973,100.16049382716047,0)" xlink:href="#aE"/></g><g id="ah"><use transform="matrix(0.08641975308641973,0,0,0.08641975308641973,0,0)" xlink:href="#bs"/><use transform="matrix(0.08641975308641973,0,0,0.08641975308641973,17.283950617283946,0)" xlink:href="#bu"/></g><path fill="#3a414a" d="M30 0v-248h187v28H63v79h144v27H63v87h162V0H30" id="bA"/><g id="ai"><use transform="matrix(0.08641975308641973,0,0,0.08641975308641973,0,0)" xlink:href="#bA"/><use transform="matrix(0.08641975308641973,0,0,0.08641975308641973,20.740740740740737,0)" xlink:href="#aN"/><use transform="matrix(0.08641975308641973,0,0,0.08641975308641973,29.382716049382708,0)" xlink:href="#aR"/><use transform="matrix(0.08641975308641973,0,0,0.08641975308641973,46.66666666666666,0)" xlink:href="#aA"/><use transform="matrix(0.08641975308641973,0,0,0.08641975308641973,63.950617283950606,0)" xlink:href="#aO"/><use transform="matrix(0.08641975308641973,0,0,0.08641975308641973,74.23456790123456,0)" xlink:href="#aA"/><use transform="matrix(0.08641975308641973,0,0,0.08641975308641973,91.5185185185185,0)" xlink:href="#aG"/><use transform="matrix(0.08641975308641973,0,0,0.08641975308641973,108.80246913580244,0)" xlink:href="#aP"/></g><path fill="#3a414a" d="M190 0L58-211 59 0H30v-248h39L202-35l-2-213h31V0h-41" id="bB"/><g id="aj"><use transform="matrix(0.08641975308641973,0,0,0.08641975308641973,0,0)" xlink:href="#aI"/><use transform="matrix(0.08641975308641973,0,0,0.08641975308641973,25.8395061728395,0)" xlink:href="#aK"/><use transform="matrix(0.08641975308641973,0,0,0.08641975308641973,43.12345679012344,0)" xlink:href="#bl"/><use transform="matrix(0.08641975308641973,0,0,0.08641975308641973,49.9506172839506,0)" xlink:href="#aB"/><use transform="matrix(0.08641975308641973,0,0,0.08641975308641973,67.23456790123454,0)" xlink:href="#bB"/><use transform="matrix(0.08641975308641973,0,0,0.08641975308641973,89.61728395061725,0)" xlink:href="#aA"/><use transform="matrix(0.08641975308641973,0,0,0.08641975308641973,106.9012345679012,0)" xlink:href="#aN"/></g><g id="ak"><use transform="matrix(0.07407407407407406,0,0,0.07407407407407406,0,0)" xlink:href="#bs"/><use transform="matrix(0.07407407407407406,0,0,0.07407407407407406,14.814814814814811,0)" xlink:href="#bt"/></g><g id="al"><use transform="matrix(0.07407407407407406,0,0,0.07407407407407406,0,0)" xlink:href="#aM"/><use transform="matrix(0.07407407407407406,0,0,0.07407407407407406,17.777777777777775,0)" xlink:href="#aF"/><use transform="matrix(0.07407407407407406,0,0,0.07407407407407406,23.62962962962963,0)" xlink:href="#aE"/><use transform="matrix(0.07407407407407406,0,0,0.07407407407407406,38.444444444444436,0)" xlink:href="#aQ"/><use transform="matrix(0.07407407407407406,0,0,0.07407407407407406,51.777777777777764,0)" xlink:href="#bg"/></g><g id="am"><use transform="matrix(0.07407407407407406,0,0,0.07407407407407406,0,0)" xlink:href="#bn"/><use transform="matrix(0.07407407407407406,0,0,0.07407407407407406,19.18518518518518,0)" xlink:href="#bl"/><use transform="matrix(0.07407407407407406,0,0,0.07407407407407406,25.03703703703703,0)" xlink:href="#aN"/><use transform="matrix(0.07407407407407406,0,0,0.07407407407407406,32.444444444444436,0)" xlink:href="#aR"/></g><g id="an"><use transform="matrix(0.07407407407407406,0,0,0.07407407407407406,0,0)" xlink:href="#aQ"/><use transform="matrix(0.07407407407407406,0,0,0.07407407407407406,13.33333333333333,0)" xlink:href="#aO"/><use transform="matrix(0.07407407407407406,0,0,0.07407407407407406,22.148148148148145,0)" xlink:href="#aE"/><use transform="matrix(0.07407407407407406,0,0,0.07407407407407406,36.962962962962955,0)" xlink:href="#aJ"/><use transform="matrix(0.07407407407407406,0,0,0.07407407407407406,50.29629629629628,0)" xlink:href="#aJ"/><use transform="matrix(0.07407407407407406,0,0,0.07407407407407406,63.62962962962961,0)" xlink:href="#bv"/><use transform="matrix(0.07407407407407406,0,0,0.07407407407407406,72.44444444444443,0)" xlink:href="#aQ"/><use transform="matrix(0.07407407407407406,0,0,0.07407407407407406,85.77777777777776,0)" xlink:href="#aR"/><use transform="matrix(0.07407407407407406,0,0,0.07407407407407406,100.59259259259257,0)" xlink:href="#aK"/><use transform="matrix(0.07407407407407406,0,0,0.07407407407407406,115.40740740740738,0)" xlink:href="#bl"/><use transform="matrix(0.07407407407407406,0,0,0.07407407407407406,121.25925925925922,0)" xlink:href="#aB"/></g><g id="ao"><use transform="matrix(0.08024691358024691,0,0,0.08024691358024691,0,0)" xlink:href="#bs"/><use transform="matrix(0.08024691358024691,0,0,0.08024691358024691,16.049382716049383,0)" xlink:href="#bt"/></g><g id="ap"><use transform="matrix(0.08024691358024691,0,0,0.08024691358024691,0,0)" xlink:href="#aM"/><use transform="matrix(0.08024691358024691,0,0,0.08024691358024691,19.25925925925926,0)" xlink:href="#aF"/><use transform="matrix(0.08024691358024691,0,0,0.08024691358024691,25.598765432098762,0)" xlink:href="#aE"/><use transform="matrix(0.08024691358024691,0,0,0.08024691358024691,41.64814814814815,0)" xlink:href="#aQ"/><use transform="matrix(0.08024691358024691,0,0,0.08024691358024691,56.092592592592595,0)" xlink:href="#bg"/></g><g id="aq"><use transform="matrix(0.08024691358024691,0,0,0.08024691358024691,0,0)" xlink:href="#bn"/><use transform="matrix(0.08024691358024691,0,0,0.08024691358024691,20.78395061728395,0)" xlink:href="#bl"/><use transform="matrix(0.08024691358024691,0,0,0.08024691358024691,27.123456790123456,0)" xlink:href="#aN"/><use transform="matrix(0.08024691358024691,0,0,0.08024691358024691,35.148148148148145,0)" xlink:href="#aR"/><use transform="matrix(0.08024691358024691,0,0,0.08024691358024691,51.197530864197525,0)" xlink:href="#aE"/><use transform="matrix(0.08024691358024691,0,0,0.08024691358024691,67.24691358024691,0)" xlink:href="#aG"/><use transform="matrix(0.08024691358024691,0,0,0.08024691358024691,83.29629629629629,0)" xlink:href="#aN"/></g><g id="ar"><use transform="matrix(0.08641975308641976,0,0,0.08641975308641976,0,0)" xlink:href="#az"/><use transform="matrix(0.08641975308641976,0,0,0.08641975308641976,20.740740740740744,0)" xlink:href="#aA"/><use transform="matrix(0.08641975308641976,0,0,0.08641975308641976,38.0246913580247,0)" xlink:href="#aB"/><use transform="matrix(0.08641975308641976,0,0,0.08641975308641976,55.308641975308646,0)" xlink:href="#aC"/></g><g id="as"><use transform="matrix(0.08641975308641976,0,0,0.08641975308641976,0,0)" xlink:href="#aO"/><use transform="matrix(0.08641975308641976,0,0,0.08641975308641976,10.283950617283951,0)" xlink:href="#aE"/><use transform="matrix(0.08641975308641976,0,0,0.08641975308641976,27.567901234567906,0)" xlink:href="#aF"/><use transform="matrix(0.08641975308641976,0,0,0.08641975308641976,34.39506172839506,0)" xlink:href="#aF"/><use transform="matrix(0.08641975308641976,0,0,0.08641975308641976,41.22222222222223,0)" xlink:href="#aG"/><use transform="matrix(0.08641975308641976,0,0,0.08641975308641976,58.50617283950618,0)" xlink:href="#aH"/></g><g id="at"><use transform="matrix(0.08641975308641976,0,0,0.08641975308641976,0,0)" xlink:href="#aN"/><use transform="matrix(0.08641975308641976,0,0,0.08641975308641976,8.641975308641976,0)" xlink:href="#aO"/><use transform="matrix(0.08641975308641976,0,0,0.08641975308641976,18.925925925925927,0)" xlink:href="#aK"/><use transform="matrix(0.08641975308641976,0,0,0.08641975308641976,36.20987654320988,0)" xlink:href="#aB"/><use transform="matrix(0.08641975308641976,0,0,0.08641975308641976,53.49382716049383,0)" xlink:href="#aJ"/><use transform="matrix(0.08641975308641976,0,0,0.08641975308641976,69.0493827160494,0)" xlink:href="#aK"/><use transform="matrix(0.08641975308641976,0,0,0.08641975308641976,86.33333333333334,0)" xlink:href="#aQ"/><use transform="matrix(0.08641975308641976,0,0,0.08641975308641976,101.8888888888889,0)" xlink:href="#aN"/><use transform="matrix(0.08641975308641976,0,0,0.08641975308641976,110.53086419753087,0)" xlink:href="#bl"/><use transform="matrix(0.08641975308641976,0,0,0.08641975308641976,117.35802469135804,0)" xlink:href="#aE"/><use transform="matrix(0.08641975308641976,0,0,0.08641975308641976,134.641975308642,0)" xlink:href="#aB"/></g><g id="au"><use transform="matrix(0.08641975308641976,0,0,0.08641975308641976,0,0)" xlink:href="#aN"/><use transform="matrix(0.08641975308641976,0,0,0.08641975308641976,8.641975308641976,0)" xlink:href="#aE"/></g><g id="av"><use transform="matrix(0.08641975308641976,0,0,0.08641975308641976,0,0)" xlink:href="#aI"/><use transform="matrix(0.08641975308641976,0,0,0.08641975308641976,25.83950617283951,0)" xlink:href="#aK"/><use transform="matrix(0.08641975308641976,0,0,0.08641975308641976,43.12345679012346,0)" xlink:href="#bl"/><use transform="matrix(0.08641975308641976,0,0,0.08641975308641976,49.95061728395062,0)" xlink:href="#aB"/><use transform="matrix(0.08641975308641976,0,0,0.08641975308641976,67.23456790123457,0)" xlink:href="#bB"/><use transform="matrix(0.08641975308641976,0,0,0.08641975308641976,89.61728395061729,0)" xlink:href="#aA"/><use transform="matrix(0.08641975308641976,0,0,0.08641975308641976,106.90123456790124,0)" xlink:href="#aN"/></g><g id="aw"><use transform="matrix(0.08024691358024691,0,0,0.08024691358024691,0,0)" xlink:href="#bi"/><use transform="matrix(0.08024691358024691,0,0,0.08024691358024691,19.25925925925926,0)" xlink:href="#aO"/><use transform="matrix(0.08024691358024691,0,0,0.08024691358024691,28.80864197530864,0)" xlink:href="#aA"/><use transform="matrix(0.08024691358024691,0,0,0.08024691358024691,44.858024691358025,0)" xlink:href="#bm"/><use transform="matrix(0.08024691358024691,0,0,0.08024691358024691,59.30246913580247,0)" xlink:href="#bl"/><use transform="matrix(0.08024691358024691,0,0,0.08024691358024691,65.64197530864197,0)" xlink:href="#aE"/><use transform="matrix(0.08024691358024691,0,0,0.08024691358024691,81.69135802469135,0)" xlink:href="#aG"/><use transform="matrix(0.08024691358024691,0,0,0.08024691358024691,97.74074074074073,0)" xlink:href="#aJ"/></g><g id="ax"><use transform="matrix(0.08024691358024691,0,0,0.08024691358024691,0,0)" xlink:href="#bs"/><use transform="matrix(0.08024691358024691,0,0,0.08024691358024691,16.049382716049383,0)" xlink:href="#bt"/></g><g id="ay"><use transform="matrix(0.08024691358024691,0,0,0.08024691358024691,0,0)" xlink:href="#aM"/><use transform="matrix(0.08024691358024691,0,0,0.08024691358024691,19.25925925925926,0)" xlink:href="#aF"/><use transform="matrix(0.08024691358024691,0,0,0.08024691358024691,25.598765432098762,0)" xlink:href="#aE"/><use transform="matrix(0.08024691358024691,0,0,0.08024691358024691,41.64814814814815,0)" xlink:href="#aQ"/><use transform="matrix(0.08024691358024691,0,0,0.08024691358024691,56.092592592592595,0)" xlink:href="#bg"/></g></defs></g></svg>