<?xml version="1.0" standalone="no"?>
<!DOCTYPE svg PUBLIC "-//W3C//DTD SVG 20010904//EN"
 "http://www.w3.org/TR/2001/REC-SVG-20010904/DTD/svg10.dtd">
<svg version="1.0" xmlns="http://www.w3.org/2000/svg"
 width="300.000000pt" height="300.000000pt" viewBox="0 0 300.000000 300.000000"
 preserveAspectRatio="xMidYMid meet">
<metadata>
Created by potrace 1.14, written by Peter Selinger 2001-2017
</metadata>
<g transform="translate(0.000000,300.000000) scale(0.100000,-0.100000)"
fill="#000000" stroke="none">
<path d="M0 1500 l0 -1500 1500 0 1500 0 0 1500 0 1500 -1500 0 -1500 0 0
-1500z m1608 585 c77 -18 161 -60 229 -115 60 -47 142 -164 171 -243 22 -59
52 -191 52 -232 l0 -25 -100 0 c-95 0 -100 1 -104 23 -3 12 -10 51 -17 87 -19
95 -70 189 -134 248 -72 66 -132 87 -250 87 -82 0 -97 -3 -157 -33 -36 -18
-82 -51 -103 -73 -53 -59 -103 -170 -117 -262 l-13 -78 -100 3 -100 3 4 50
c13 193 124 389 274 486 54 35 148 72 207 82 59 10 200 6 258 -8z m718 -1239
c75 -64 -6 -177 -94 -132 -34 17 -42 34 -42 81 0 67 83 98 136 51z"/>
</g>
</svg>
